<?xml version="1.0" encoding="UTF-8"?><svg id="a" xmlns="http://www.w3.org/2000/svg" xmlns:xlink="http://www.w3.org/1999/xlink" viewBox="0 0 126.94 117.59"><defs><style>.c{fill:#f5db85;}.d{fill:#e3be47;}.e{fill:#b1955b;}.f{fill:#996547;}.g{fill:#f4dd61;}.h{fill:#c8a135;}.i{fill:#140d0c;}.j{fill:#f1e199;}.k{fill:#b1832d;}.l{fill:#c99057;}.m{fill:#b1842c;}.n{fill:#e9522e;}.o{fill:#332b18;}.p{fill:#f4dc5c;}.q{fill:#3e351d;}.r{fill:#5d5742;}.s{fill:#8c5c14;}.t{fill:#cda345;}.u{fill:#c49a33;}.v{fill:#c1a26f;}.w{fill:#9f5235;}.x{fill:#561f12;}.y{fill:#322317;}.z{fill:#eedf96;}.aa{fill:#cba133;}.ab{fill:#f0e284;}.ac{fill:#413a21;}.ad{fill:#d18630;}.ae{fill:#b7965c;}.af{fill:#f2dd61;}.ag{fill:#d58829;}.ah{fill:#d9b23a;}.ai{fill:#ae4718;}.aj{fill:#f18848;}.ak{fill:#cea837;}.al{fill:#15100a;}.am{fill:#645e4c;}.an{fill:#f4d752;}.ao{fill:#6e695d;}.ap{fill:#110c0a;}.aq{fill:#c9a130;}.ar{fill:#443b1f;}.as{fill:#453d20;}.at{fill:#ee7f26;}.au{fill:#ae451a;}.av{fill:#dbb53e;}.aw{fill:#f2e27f;}.ax{fill:#6b4624;}.ay{fill:#d6ad3e;}.az{fill:#ea532f;}.ba{fill:#cba337;}.bb{fill:#efe7b5;}.bc{fill:#f3f3f3;}.bd{fill:#f0e18a;}.be{fill:#8b462e;}.bf{fill:#362715;}.bg{fill:#5d3513;}.bh{fill:#f3e895;}.bi{fill:#f6dd4c;}.bj{fill:#f5dc5a;}.bk{fill:#ad8f5a;}.bl{fill:#635f51;}.bm{fill:#e7d580;}.bn{fill:#eba136;}.bo{fill:#d5862c;}.bp{fill:#d8b13d;}.bq{fill:#f0e49a;}.br{fill:#f5db4d;}.bs{fill:#4a412f;}.bt{fill:#4a3514;}.bu{fill:#413215;}.bv{fill:#e4c74d;}.bw{fill:#eae19b;}.bx{fill:#fcd29d;}.by{fill:#edd985;}.bz{fill:#baa05e;}.ca{fill:#f7de5c;}.cb{fill:#d8b13a;}.cc{fill:#d8b842;}.cd{fill:#eddf7f;}.ce{fill:#bcb39d;}.cf{fill:#2f2615;}.cg{fill:#efe2ac;}.ch{fill:#f5eb9e;}.ci{fill:#f1f1ef;}.cj{fill:#cea139;}.ck{fill:#ebd05d;}.cl{fill:#d9b240;}.cm{fill:#d0ab38;}.cn{fill:#363021;}.co{fill:#dac376;}.cp{fill:#3f331f;}.cq{fill:#d5b03b;}.cr{fill:#caa032;}.cs{fill:#ecdd99;}.ct{fill:#3c3218;}.cu{fill:#44371c;}.cv{fill:#f8df54;}.cw{fill:#fcebbb;}.cx{fill:#402c14;}.cy{fill:#d9b64a;}.cz{fill:#ca9f38;}.da{fill:#d5b877;}.db{fill:#f7e158;}.dc{fill:#dcb348;}.dd{fill:#cd8c50;}.de{fill:#6c5012;}.df{fill:#d0a638;}.dg{fill:#f29163;}.dh{fill:#8c8777;}.di{fill:#cea633;}.dj{fill:#372e16;}.dk{fill:#f0e290;}.dl{fill:#f2e89e;}.dm{fill:#f5ea99;}.dn{fill:#e3bf47;}.do{fill:#b2862a;}.dp{fill:#786c4d;}.dq{fill:#f4dd5c;}.dr{fill:#c1985b;}.ds{fill:#f5e390;}.dt{fill:#f1b773;}.du{fill:#725316;}.dv{fill:#cea237;}.dw{fill:#332916;}.dx{fill:#f4e591;}.dy{fill:#f0e495;}.dz{fill:#f7e058;}.ea{fill:#e49b55;}.eb{fill:#f1e285;}.ec{fill:#eacf5e;}.ed{fill:#623715;}.ee{fill:#220f0a;}.ef{fill:#c55f2d;}.eg{fill:#eedd89;}.eh{fill:#583513;}.ei{fill:#6a320e;}.ej{fill:#a6844f;}.ek{fill:#ef794d;}.el{fill:#e94f2c;}.em{fill:#dab33e;}.en{fill:#c8a972;}.eo{fill:#e7d064;}.ep{fill:#6d6755;}.eq{fill:#d7ae3a;}.er{fill:#f0e288;}.es{fill:#59533e;}.et{fill:#e8d370;}.eu{fill:#301911;}.ev{fill:#181611;}.ew{fill:#e4a639;}.ex{fill:#da8028;}.ey{fill:#24180e;}.ez{fill:#f28c5e;}.fa{fill:#773925;}.fb{fill:#252013;}.fc{fill:#d4b85d;}.fd{fill:#5a3712;}.fe{fill:#dab33b;}.ff{fill:#ece2a4;}.fg{fill:#b9965b;}.fh{fill:#ee7147;}.fi{fill:#484132;}.fj{fill:#b22d18;}.fk{fill:#cda339;}.fl{fill:#484229;}.fm{fill:#4c452f;}.fn{fill:url(#b);}.fo{fill:#ac2b17;}.fp{fill:#593a11;}.fq{fill:#ae822a;}.fr{fill:#fdd29e;}.fs{fill:#e4d590;}.ft{fill:#481e14;}.fu{fill:#e98130;}.fv{fill:#f5a474;}.fw{fill:#a9a594;}.fx{fill:#201913;}.fy{fill:#262013;}.fz{fill:#fcedc1;}.ga{fill:#cca33a;}.gb{fill:#b78933;}.gc{fill:#eee08e;}.gd{fill:#2f2715;}.ge{fill:#eee3ab;}.gf{fill:#d2842a;}.gg{fill:#d2a834;}.gh{fill:#512d12;}.gi{fill:#73431c;}.gj{fill:#67290d;}.gk{fill:#e4c753;}.gl{fill:#f8e15d;}.gm{fill:#d1ab37;}.gn{fill:#efc47d;}.go{fill:#cba339;}.gp{fill:#b56144;}.gq{fill:#feffff;}.gr{fill:#de6b35;}.gs{fill:#dfbf53;}.gt{fill:#eaba40;}.gu{fill:#f3e68c;}.gv{fill:#caa238;}.gw{fill:#504b3c;}.gx{fill:#ee7148;}.gy{fill:#d6ae3b;}.gz{fill:#f7b280;}.ha{fill:#f18649;}.hb{fill:#5d3e12;}.hc{fill:#c39b35;}.hd{fill:#cea73c;}.he{fill:#f6eb9b;}.hf{fill:#f3ebb8;}.hg{fill:#bf9550;}.hh{fill:#b6882e;}.hi{fill:#ee7e28;}.hj{fill:#9c6d28;}.hk{fill:#ea5932;}.hl{fill:#b3852c;}.hm{fill:#b59b64;}</style><linearGradient id="b" x1="195.91" y1="-281.53" x2="206.28" y2="-126.87" gradientTransform="translate(58.4 77.32) scale(.22)" gradientUnits="userSpaceOnUse"><stop offset="0" stop-color="#f3de64"/><stop offset=".77" stop-color="#f1ce42"/><stop offset="1" stop-color="#f4d652"/></linearGradient></defs><path class="dh" d="M57.96,19.14c.38.19.43.35,0,.43-.63-.13-1.33-.31-1.96-.48-2.66-.44-5.33-.65-8.02-.62l-.46-.2c-.19-.06-.19-.13,0-.22.23-.12.52-.19.87-.22.52-.21,1.15.21,1.75.2,2.71-.04,5.36.26,7.81,1.11Z"/><path class="bl" d="M46,18.05c.44-.17,1.12-.18,1.52,0v.22c-1.39.42-3.14.62-4.57.43v-.22c.99-.06,2.01-.43,3.04-.43Z"/><path class="hf" d="M48.39,17.83c-.31.12-.49.22-.87.22h-1.52c-.02-.17.2-.22.42-.22h1.97Z"/><path class="gq" d="M76.01,72.43c1.35,3.14,2.98,6.15,4.6,9.31-1.22.78-2.39,1.34-3.8,1.9l-2.08-6.43c-.47-.76-1.43-4.45-1.19-5.14.12-.35,2.57-.36,2.46.36Z"/><path class="dw" d="M27.31,28.73c.32-.29.44-.17.2.21l-2.04,6.13-.46,3.14c-.09,3.48-.66,6.91-1.55,10.29-.02.09-.15.16-.29.23-.51.24-.33-.67-.19-1.07.03-1.19.56-2.32.73-3.59.77-5.8.23-8.34,2.7-14.03-6.67-4.66-8.1-4.85-13.85-10.68.07-.05.13-.11.18-.18l.73.32c3.96,3.63,8.42,6.9,12.89,9.55.33-.04.65-.14.96-.31Z"/><path class="cf" d="M37.27,20.01c.36-.12.5-.05.44.19,0,.16-.01.29-.08.32-.55.3-3.59,1.75-3.92,1.68-.14-.03-.25-.05-.28-.21-1.5-1.47-2.96-3-4.39-4.6-5.04-4.31-10.33-8.25-16.12-11.49-.55.41-1.08.01-1.09-.62-.54.24-.9.16-1.07-.23.19-.19.41-.34.63-.48,5.11,2.34,10.92,6.21,15.21,10.07,2.31,2.08,4.61,4,6.64,6.4.27.32.78.48,1.17.22.94-.63,1.93-.87,2.86-1.23Z"/><path class="dx" d="M68.4,16.53c.04.11-.24.26-.2.34.1.16.38.01.45.03l-.06.67c-1.49,1.34-2.89,2.78-4,4.45-.9.62-1.99.47-3.29-.43-2.05-.74-4.14-1.36-6.27-1.86l-.37-.57c.33-.17.77-.19,1.32-.05.54-.28,1.55.03,1.96.48,1.43,0,3.24.66,4.4,1.52,1.02.21,2.18-.34,2.1-.88.4-.35.86-.9,1.15-1.32.67-.67,1.43-1.36,2.3-2.09.16-.04.28-.29.49-.28Z"/><path class="ai" d="M75.1,53.87c.14.37-.03.44-.36.25l-.31.46c-.1.7-.36.98-.79.87.18.81-.06,1.25-.72,1.32.12.12.28.31.22.42-.27.51-1.41,2-1.99,1.75-.21.01-.25-.13-.12-.41-.49-.37.58-1.21,1-1.53-.17-.11-.26-.27-.15-.43.45-.64.91-1.29,1.5-1.81l.3-1.69.37-.21c-.1-.49-.13-1.42.39-1.52.17-.48.34-.63.51-.45-.04.17-.5,2.85.15,2.99Z"/><path class="au" d="M23.66,53.5l.29-.04c.11.76.38,1.42.79,1.99.84.63,1.26,1.35,1.26,2.18.4.4.61.77.61,1.09.18.4.12.52-.19.38-.85-.51-1.66-1.58-1.94-2.59-.09.17-.17.1-.23-.22-.55-.02-.88-.58-.87-1.09-.37.06-.45-.1-.2-.38.4.16-.38-2.82-.23-2.41-.14-.61-.06-.84.24-.67l.33.1.13,1.64Z"/><path class="ep" d="M76.24,9.96c-.98.58-1.75,1.6-2.9,2.11-.04.04-.04-.08-.08-.13.75-1.02,2.03-1.47,2.95-2.29l.03.31Z"/><path class="f" d="M23.17,48.71c.44.65.46,2.33.03,3.05-.31.06-.25.43-.24.67-.28-.75-.42-4.56.03-4.79,0,.35-.19.88.19,1.07Z"/><path class="cu" d="M64.46,20.22s.12-.01.26.1l-1.15,1.38c-.45-.24-.82-.45-1.22-.61l.2-.23c.67.18,1.36-.17,1.9-.64Z"/><path class="r" d="M67.91,16.81l-1.93,2.12c-.15.17-.34.19-.37-.03.59-.85,1.23-1.81,2.3-2.09Z"/><path class="af" d="M86.18,14.18c.05.75-.2,1.51-.58,2.16-.08-.01-.15-.03-.17-.08-.18-.29.23-.1-.04.23-3.52,4.2-9.57,9.44-14.6,11.69-.19.09-.42.09-.67.08-.31.15-.82-.31-.64-.63-.4-.22-.45-.29-.06-.38.8-.04,1.42-.55,1.87-1.54.71.09.98-.06.83-.44l.41-.31c1.19-.09,2.1-.79,2.63-1.84.09-.17.27-.23.54-.2,1.95-1.53,3.75-3.35,5.38-5.45l.5.14c.53-.79,1.05-1.1,1.55-.91.12-.64.41-.98.86-1.02-.46-.58.08-.96.72-.63.27-.67.64-.97,1.1-.89.43-.78.66-1.05.36.01Z"/><path class="bh" d="M85.61,16.34c-.11.19-.02.57-.27.82l-2.87,2.92c-.86.87-11.08,9.1-12.36,8.41-.18-.08-.18-.16.02-.24,5.74-2.91,10.84-6.94,15.11-11.86.09-.11,0-.35.11-.43s.2-.14.22.02c.02.14-.03.26.03.34Z"/><path class="fx" d="M82.7,20.3c-.61.38-.79.27-.23-.22l-.14-.23c1.18-1.13,2.28-2.3,3.27-3.51-.22-.71.04-1.55.58-2.16l.53-2c.09-.99.22-1.93.39-2.83l-.21-3.5-.23.02c-.22-.87-.44-1.5-1.45-1l-8.44,5.07-.53.02c-.21.03-.22-.08-.03-.31.91-.81,1.96-1.34,3.05-2.07,2.65-1.78,5.33-3.25,8.29-4.52,1.28-.55,9.02-3.92,9.6-2.85.07.13.07.45-.03.69-1.31,3.31-3.19,6.21-5.25,9.11-2.73,3.84-5.77,7.25-9.18,10.29Z"/><path class="dm" d="M86.89,5.85c.14.41.09.66-.14.76-.62-.02-.76-.32-.33-.79-.35-.29-.7-.41-1.04-.35-5.63,3.21-11.3,6.73-16.05,11.36l-.67.06c-.78.56-1,.17-.26-.37,1.98-2.83,1.63-.65,2.66-2.57.49-.91,1.65-1.26,2.2-2.02.98-.74,1.98-1.4,2.98-1.98,3.21-1.89,6.26-4.1,9.75-5.67.67.17.73,1.14.9,1.56Z"/><path class="fi" d="M96.04.66c.35,0,.42.35.19,1.07-2.26,5.11-5.76,9.64-9.62,13.91.17-.79.22-2.12.77-2.66.76-.51,1.03-1.16,1.57-1.82.65-.8,1.44-1.23,1.75-2.39.19-.72,1.2-1.18,1.47-1.91.31-.84.89-1.4,1.42-2.08.49-.63.53-1.59,1.16-2.15.19-.17.55-.33.43-.56-.08-.16-.51-.48-.67-.33-.66.6-5.68,2.47-5.57,2.38l-1.44,1.29c-.17-.4-.74-.76-.61-1.32,2.07-1.4,6.7-3.11,9.16-3.44Z"/><path class="bk" d="M87.1,9.35c.06,1.63-.23,3.35-.92,4.83-.08-.1,0-.2.03-.35.24-1.07-.47.77-.39.34l-.19-.53c.64-1.58.84-3.26.62-5.05.19-.38.26-.46.63-.12.13.16.2.46.21.88Z"/><path class="da" d="M87.1,9.35c-.3-.22-.16-.58-.21-.88-.65.11-.87-1.33-.26-1.58-.13-.17-.09-.27.13-.28.13-.23.15-.5.14-.76.44,1.09.34,2.33.21,3.5Z"/><path class="ao" d="M96.23,1.73l-.19-1.07c.15-.02.54-.36.57-.03.05.46-.29.79-.39,1.1Z"/><path class="cd" d="M73.89,69.83c.18.18.31.4.42.61.18.33,1.45.43,2.05.46,1.54.1.6.42.63.37.09-.13.26-.33.31-.37l2.22.36c.75-.15,1.49-.14,2.22.04.31-.39.98-.24,1.2.22.36-.02.52.08.46.3l-.21.29c-1.72.21-3.39.16-5.01-.13-.12,0-.33.02-.43,0l-3.99-.57c-.71-.53-.13-1.83-.36-2.48-.3-2.02,1.28-.2.49.89Z"/><path class="ab" d="M87.34,70.71c.38-.43,1.48.05,1.49.6.3-.85.82-1.05.47.04-.11.16.07.48-.03.66-.12.54-.99.08-1.72-.24l-3.98.29-.18-.24c-.18-.06-.35-.15-.46-.3.1-.25.26-.43.48-.57.51-.33,3.24-.59,3.91-.24Z"/><path class="gc" d="M11.16,15.44l.57.42c.3.8.71,1.65,1.33,2.26,3.17,3.1,6.37,5.55,9.96,8.13,1.32.95,2.83,1.99,4.3,2.29.19.05.18.11-.01.19l-.74.78-3.58-2.38c-3.68-2.44-7.03-5.09-10.26-7.97-1.36-1.22-1.7-2.96-2.16-4.57.05-.19.12-.18.21,0,.68-.03.85.34.39.85Z"/><path class="ds" d="M24.45,49.34c.34.13.18.86-.19.94l-.27,3.2-.34.02c-.2-.56-.28-1.16-.46-1.74-.32-1.03-.18-2.01-.03-3.05.12-.8.3-1.61.53-2.48,1.77-6.75-.14-9.51,3.82-17.3.14-.28.43-.49.69-.64.28.01.41.17.35.44-2.46,4.36-3.02,9.25-3.14,14.13l-1.28,5.88c.29.1.42.28.33.6Z"/><path class="bj" d="M86.42,5.83c-.13.23-.21.5-.24.8-1.04.31-1.9.82-2.59,1.54-.55.24-1.04.56-1.46.96-.47.48-1.08.84-1.82,1.1-.76.9-1.58,1.34-2.47,1.3.02-.18-.28-.11-.9.22.41.47-1.18,2.06-1.51,2.21l-.43-.1c-.4.7-.89,1.2-1.48,1.51-.34-.31-.72-.06-1.14.74l-2.21,1.88c-.54-.1-.78.06-.73.48-1.3,1.31-2.5,2.71-3.61,4.2l-.3-.03c-.9,1.22-1.85,1.55-2.83.98l-.62.07c-.36-.73-1.14-.93-1.92-.88-.36-.24-.73-.38-1.1-.42-.12-.15-.32-.24-.43-.4-.72.19-1.3.1-1.75-.27-.25-.2-.69-.62-1.11-.57-.15.16.06.59-.28.67-.57.12-.79-.88-1.2-.6-.11.08-.06.32-.01.57-.97.18-1.86-.28-2.61-.9l-.19.14c.11.45-.03.43-.47.22-.39-.47-1.21-.46-1.72-.18-3.16.17-6.47.43-9.59.69-.45.28-1.11.4-1.51.8-1.09.45-2.18.9-3.26,1.35-.13.04-.3.12-.42.2-.65.09-1.28-.04-1.89-.38-.74-.69-1.54-1.26-2.42-1.72-.04-.18-.18-.32-.26-.48l-1.31-1.31c-.4-.82-.81-1.24-1.24-1.26-1.65-1.53-3.26-3.11-4.84-4.74l.14-.29c-.43-.02-.84-.12-1.24-.27-.04-.05-.15-.07-.2-.12l-.71-.4c-.23-.49-.45-.58-.66-.25-.79-.62-1.52-1.31-2.18-2.08l-.6.03-.28-.17-2.19-1.46c-.38-.71-.85-1.11-1.4-1.19-.27-.33-2.37-1.43-2.72-1.3.25-.62.66-1.27,1.33-1.47.43.12.71.45,1.09.62,5.26,3.06,11.38,7.06,16.1,11.72,1.39,1.33,2.78,2.68,4.15,4.07v.3c.3.2.6.26.9.18l3.98-1.82.99-.11c4.43-1.93,10.42-2.23,15.2-1.34.16.03.3.13.44.26,2.99.94,5.12,1.11,8.32,2.72.78.39,1.29-.03,1.64-.6,1.08-1.78,2.65-2.99,4.02-4.37,2.68-2.7,7.65-6.56,11.1-8.6l5.33-3.15c.34-.2.78-.23,1.07,0,.17.14.2.42.27.68Z"/><path class="dy" d="M29.04,17.38c.08.08.07.15-.02.23-2.24-1.39-4.09-3.74-6.65-5.28-.93-.56-1.58-1.48-2.53-1.97-2.97-1.52-4.05-2.62-6.95-4.19-.11-.07-.14-.33.03-.28,3.08,1.39,5.94,3.33,8.8,5.34,2.67,1.88,4.95,4.06,7.32,6.15Z"/><path class="bd" d="M39.04,20.23c-1.51.51-2.95,1.34-4.46,2-.6.26-1.09.15-1.41-.25-.02-.36.11-.31.26.02.22.17.47.06.74-.12,1.15-.74,2.41-1.07,3.54-1.68.2-.11.48-.14.7-.19.27.03.48.1.63.22Z"/><path class="cs" d="M33.43,21.99c-.06-.04-.19,0-.26-.02-1.3-1.65-3.16-2.72-4.16-4.36l.02-.23c1.21,1.07,2.33,2.24,3.52,3.48.36.38.89.6.88,1.12Z"/><path class="du" d="M69.5,27.63c.19.23.41.43.64.63l-.02.24c-.1.04-.23.07-.2.2-.26-.44-.86-.84-1.28-1.04.08-.11-.02-.39.03-.51.14-.27.89.18.83.49Z"/><path class="ga" d="M86.42,5.83c.08.27.27.51.33.79-.05.09-.08.19-.13.28l-.08.39c-1.34.64-2.65,1.35-3.93,2.12l-.49-.28c0-.2-.02-.79.2-.82,1.16.18,1.44-.94,2.09-1.41.38-.27,1.52.07,1.55-.87,0-.12.18-.31.26-.29.06.02.13.07.19.09Z"/><path class="hf" d="M47.52,18.27c2.85-.18,5.75.09,8.48.83-.43,0-.89.12-1.32.05-5.24-.8-10.61-.63-15.64,1.08-.21.01-.62.08-.63-.22,1.51-.34,3.02-1.08,4.54-1.3s3.07-.34,4.57-.43Z"/><path class="aj" d="M31.92,57.84c.22,1.54-2.25,2.69-3.52,2.16l-.21.09c-.37-.43-.67-.66-.9-.72-.26.3-.81-.3-.68-.65-.16-.4-.56-.65-.61-1.09l.16-.09c6.51,5.53,7.47-5.91,2.94-8.78l-.04-.28c-.03-.7.42-.58.94-.3,2.75,1.51,3.76,6.87,2.45,9.59l-.51.07Z"/><path class="gx" d="M31.26,52.46c.53.2.84,1.75.41,2.13l-.3.59c-.02.44-.2.74-.55.89.29.51-.03.94-.97,1.3-1.04.58-2.02.77-2.94.57-.25.13-.7-.27-.83-.52,0-.02.29.16-.08.22-.64-.58-.89-1.44-1.26-2.18.08-.17.27-.38.36-.32,2.87,3.03,6.64.71,4.93-3.2l.26-.18c.34-.05.66.18.96.71Z"/><path class="ea" d="M26.42,59.1l.4.16c1.44,1.54,2.98,2.95,4.62,4.24.08.18-.24.31-.35.18-.39-.52-1.03-.55-1.4-.83-.12.13-.34.28-.44.2-1.71-1.58-3.38-3.23-4.82-5.08l.07-.54c-.41.01-.41-.29-.02-.91.57.92,1.27,1.75,1.94,2.59Z"/><path class="ei" d="M27.29,59.38c1.65,1.54,3.39,2.99,5.23,4.34.08.15.3.29.07.5-.52-.25-.82-.52-1.15-.72-1.94-1.16-3.62-2.64-5.01-4.4.03-.14.09-.27.19-.38.12.29.48.44.68.65Z"/><path class="ef" d="M24.67,50.23l.31.45c-.24.62-.48,1.22-.72,1.8.4.27.57.81.49,1.62.27.58.26,1.04,0,1.36-.32-.1-.56-.46-.69-.83l-.39-1.13c.33-.32-.11-2.51.61-3.22.11-.15.25-.17.41-.05Z"/><path class="hl" d="M86.63,6.9l.26,1.58c-.12-.1-.2.08-.21.23.13,1.95.12,3.98-.85,5.46l-1.12,1.71c-.2-.26-.21-.54-.31-.64-.05-.05-.34.41-.39.45-.18.29-.51.45-.98.46-.57.87-1.23,1.33-1.99,1.37l-.93.86c-1.01,1.55-2.48,3.15-3.91,4.34-.29.24-.66.44-1.02.41-.4.95-1.61,1.87-2.57,1.86-.17.42-.61.63-1.32.64-.96,1.76-1.78,2.15-2.45,1.16-.32-1.25-1.09-1.24-1.93-2.58-.14-.22.27-.54.24-.77-.14-1.24.39-2.18,1.58-2.45.69-2.1,1.04-1.36,1.37-2.26l-.28-.45c.76-.78,1.6-1.51,2.52-2.18,1.13-.55,2.09-1.33,2.88-2.34l.31.09,1.12-1.18,2.84-1.38-.09-.29c.86-.71,1.76-1.34,2.72-1.88.96-.34,1.77-.75,2.54-1.55-.42.43,2.38-1.15,1.97-.68Z"/><path class="gv" d="M84.01,15.69c-.37.92-.62,1.9-1.42,2.59.07-.54.41-.92.31-1.47-.67.42-.86,1.09-1.44,1.72-.28-.25.13-.53-.31-.83-.33,1.11-1.07,1.68-1.81,2.36s-1.33,1.38-2.22,1.95c-.52.33-.73,1.16-1.38,1.31-.15.03-.39-.31-.57-.2,0-.46.67-.37.9-.64.88-1.01,2.05-1.78,2.76-2.95.56-.91.99-1.94,2.24-2.31,2.03-.58.77-1.85,2.92-1.54Z"/><path class="cj" d="M69.5,27.63l-.83-.49c.02-.06-.12-.15-.17-.18-.12-.07-.08-.21.03-.2.15.01.24.05.31.03.24.15.48.36.95.45,1.56-3.38,1.74-1.46,2.92-2.47.45-.39,1.3-.31,1.66-.99.16-.31.65-.47.81-.66.42,1.13-2.38,2.26-2.13,2.26-.2,0-.25-.27-.48-.37,0,.5.09,1.18-.42,1.24-.19.02-.36-.36-.6-.24-.86,2.02-1.8,1.39-2.01,1.39-.07,0-.05.13-.04.23Z"/><path class="z" d="M91.25,65.92c-.05-1.18-.72-.93-.68-1.55.57.09,1.04.43,1.59.85-.25.46-.57.6-.91.7Z"/><path class="m" d="M13.16,16.52c-.87.2-1.64-.37-2-1.08-.08-.29-.26-.6-.39-.85-.32-2.4-.59-4.77-.44-7.2,0-.07-.05-.17-.02-.23,2.88,1.02.99,1.5,2.84,2.65,1.11.69,2.22,1.21,3.49,1.51,1.15.27,1.62,1.48,2.29,2.25.38.43.97.83,1.23,1.39,1.22.2,2.37.84,2.26,2.35,1.27-.02,2.38.87,2.7,1.98-.46.12-1.37.17-1.23.66.44,1.61-.19,2.44-.66,2.46-.31.02-.75-.17-.85-.53-.23-.8-1.35-.52-1.68-.91-.63-.74-.85-1.09-1.82-1.34-1.34-.35-4.74-2.52-5.4-4.23-.13.48.13,1.03-.32,1.12Z"/><path class="dq" d="M13.16,16.52c-.06.44.17.74.58,1.3.18-.23-.06-.51.17-.88.8.92,1.3,1.98,1.94,3.02.25-.42.11-.78.17-1.26l.4.29.6.87,2.33,1.84c.81.11,1.31.46,1.5,1.04.19.07.4.18.61.32.1.03.15.16.25.2.38.03.66.32.83.85.45.87.87,1.1,1.28.71l.46.41c.16.6.58,1.09.9,1.72,1.8-.35,1.49.5,2.74.88-.17.25-.27.57-.57.71-.74.53-1.11.21-1.81-.23-4.55-2.84-8.84-5.93-12.62-9.73-.92-.93-1.44-2.01-1.73-3.14.1.08.23.23.38.3.1.05.31-.21.42-.15.28.14.31.46.58.72.19-.25.08-.5.34-.66.07.41.22.68.28.87Z"/><path class="ex" d="M36.22,48.29c.58.01.59.56.64,1.07l.31,3.05c.22,2.2.23,4.71-1.13,6.61-.39.54-1.11,1.11-1.58,1.54-1.06.97-2.65,1.26-3.87.78-.45-.18-.72-.56-1.15-.4-.39.22-1.2-.51-1.04-.93.18-.35.58-.24.97-.31,1.09-.18,2.05-.92,2.55-1.85.89.47,1.75-.31,2.33-1.18,1.05-1.57,0-6.17-.63-7.85l.18-.51c.71-.29,1.74-.37,2.41-.01Z"/><path class="db" d="M28.99,33.54l-.28.96c-.1.22-.09.57.04,1.05l-1.57,2.76c.71.4.39,1.18-.02,1.71.19.49.29.99.31,1.5l.04.23.07.47c-.63,1.14-.92,2.48-.86,4.01l-.9,1.43c.42.1.35.22-.02.4.05.1.07.2.04.24-.06.08-1.06,1.11-1.12,1.16-.04.03-.14-.03-.25-.12-.06-.23-.4-.05-.67.02-.43,0,.58-3.91.69-4.3,1-3.57.4-3.67.8-7,.2-1.59.33-3.08.89-4.58s.82-2.92,1.65-4.25c.2-.33.45-.59.39-.94.08-.05.17-.13.24-.19.09.18.63.46.5.71-.28.55-.03,1.12-.28,1.55l-.88,1.46c.6-.24.96-.73,1.46-1.18-.21,1.22-1.08,1.91-1.55,3.15.29.3,1.16-1.07,1.3-.6.04.13-.04.27.01.34Z"/><path class="ag" d="M30.28,44.55c.14-.02.26-.03.29.01.16.26.8,1.61.96,1.96.02.06-.01.14-.06.23l-.37.33c-1-.45-2.02-.75-3.06-.91l-.45.26c-.54.85-1.12,1.26-1.76,1.22-.11-.38.42-.68.45-1.06l.15-1.81c.1-1.19.04-2.46,1.09-3.04,1.4,1.61,1.71.68,2.77,2.8Z"/><path class="fk" d="M79.5,11.3c-.31.8-1.15.76-1.86,1.24-.64.43-1.4.94-2,1.45-1.02.86-1.69,1.91-2.98,2.46-1.07.46-2.17,1.27-2.56,2.29-.43-.11-.87.11-1.13.54-.53.88-1.3,1.43-1.95,2.15-.43.48-.72,1.23-1.26,1.59-3.1,2.06-2.09.78-2.98.76-.36,0-.55.2-.69-.1.27-.13.26-.48.1-.74.62-.18.85.76,1.24.87,1.45.05,1.87-2.63,2.41-1.46l2.18-2.91c.35-.47,1-.72,1.06-1.36.06-.78.79-.36,1.07-.54,1.39-.88,2.41-2.24,3.16-3.66.2.46-.21.91.35,1.14l1.8-2.6c.23.45-.16.8-.03,1.31.65-.66.82-1.47,1.51-1.99.42-.41,1.11-.69,1.47-.19.43-.26.79-.35,1.09-.27Z"/><path class="eu" d="M33.37,39.3c.28-.05.39.03.26.28-.23,0-.47.05-.58.19-.14.19-.03.47-.12.64-.87,1.77.15,2.33.28,3.5-.14.38-.52.38-1.13.01l-.62.08c-.29.94-.52,1.06-.69.37-.49-.34-.41-2.01.05-2.43.11-.29.48-.48.43-.86.75-.74,1.04-1.44.87-2.11.37-.59.82.25,1.23.33Z"/><path class="dd" d="M30.83,41.95c-.34.86-.18,1.62-.05,2.43l.31.09c.41,2.41,3.04,4.03,5.26,2.78l.34.38c.31-.26.41-.13.18.21-.24.11-.45.3-.66.45-.8-.01-1.61-.02-2.41.01-.29.71-1.98-.69-2.33-1.06l-.02-.48c-.61-.61-.81-1.46-1.18-2.21.04-.13,0-3.63.56-2.61Z"/><path class="fj" d="M29.05,48.48c2.55,1.69,3.62,5.62,2.83,8.47-.31,1.11-1.17,1.98-2.09,2.23-1.03.27-2.1,0-2.89-.73l-.91-.82c-.01-.1-.08-.24.11-.47.16.38.57.51.8.77l.64.02c1.56,1.01,3.55.13,3.63-1.78l.43-.24c-.61-.12-.27-.98.06-1.35.06-.77-.17-1.42-.41-2.13-.54-.32-.92-1.39-.96-2.05-.88-.76-1.86-1.3-2.93-1.63-.84-.08-1.67.2-2.48.83.59.22.39.68-.22.62-.08.05-.16.13-.31.22-.06.04-.15-.06-.1-.17.17-.24.07-.67.19-.94.47-.36.83-.97,1.34-1.28.55-1.01,3.15-.72,3.26.42Z"/><path class="df" d="M82.12,9.13c-.03,1.74-1.98.51-2.62,2.17-.82.41-1.66.55-2.56.45.39-.29.33-1.13,1.1-1.29l.19.99c.29.24,2.45-1.73,2.52-2.15.45.05.98-.03,1.38-.17Z"/><path class="fo" d="M71.66,47.65c.07.01.15-.03.22-.02.48.42,1.09.77,1.23,1.42l.12.6c.04.2-.22.08-.33.06l-.47-.28c-1.26-2.45-4.05-.19-5.06,1.36l-.27.06c.16.48.03,1.06-.4,1.73-.05.74-.26,1.28-.64,1.61l.2.17c.23,2.31,1.42,4.54,4.01,3.07l.57.23c0,.39-.51.6-.68.83-.91.98-2.64.49-3.5-.42-2.51-2.63-1.26-7.54,1.54-9.41,1.04-.77,2.18-1.25,3.48-1.01Z"/><path class="hk" d="M71.03,57.16c.09.05.15.17.19.26-.14.01-.25.21-.39.25-.95.37-1.92,1.03-3,.5-1.5-.74-2.03-2.45-1.78-3.97.06-.39.27-.51.56-.26,1.25,1.94,2.11,2.45,4.33,2.71l.08.52Z"/><path class="at" d="M31.45,46.76c.86.31,1.43,1.27,2.35,1.54.78,1.09.86,2.31.99,3.68.18,1.94,1.53,5.06-2.62,6.78-.13-.44-.09-.71-.26-.91.68-1.26.76-4,.5-5.21-.31-1.39-2.49-4.82-3.37-4.15-1-.56-2.15-.78-3.26-.42-.02-.13.06-.28.02-.4,1.31-.96,1.4-2.41,3.2-1.77l2.45.87Z"/><path class="ez" d="M29.04,50.84l-.02.25c-.67-.21-1.32-.35-1.94-.42-.07.18-.14.18-.22,0-.79.27-1.46.74-1.74,1.55.37.33.52.93.43,1.78,1.39,3.7,5.92,1.15,3.53-2.08l.17-.58c-.37-.13-.6-.26-.22-.5.54-.43,1.47.23,1.26.91l.46,2.65c.11.62-.41,1.47-.92,1.78-2.68,1.63-4.08-.41-5.1-.73-.47-.95-.42-1.94-.48-2.98.65-2.78,2.31-3.06,4.76-2.05.15.06.14.23.03.41Z"/><path class="fh" d="M30.3,50.41c.8.38.72,1.32.96,2.05-.53.22-.68-.37-.96-.71-.34-.4-.9-.6-1.26-.91-1.02-.91-2.94-.88-3.89.27-.38.46-.26,1.3-.89,1.37-.05-.82.14-1.44.42-2.25l.22-.62c1.4-1.01,4.11-.18,5.41.81Z"/><path class="n" d="M31.6,55.94c.08,1.12-.54,2.26-1.64,2.69s-2.33.16-3.06-.69c1.13-.5,3.21-.75,3.91-1.87.27-.66.56-.89.79-.13Z"/><path class="fh" d="M31.66,54.59c-.03.42-.09.94-.06,1.35-.23-.01-.64-.11-.79.13.14-.57.23-1.31.85-1.49Z"/><path class="i" d="M65.54,38.78c-.1.26-.15.55-.15.85.73.52,1.85,1.7,1.5,2.52.06.33.21,1.59.05,1.72-.49.38-1.54-.78-1.67-1.36-.04,1.07-.71,1.95-2.02,2.64-.88.46-1.4.9-1.37,1.88.48.49.13.51-.46.39-.58.4-1.87-.76-2.28-1.33s-1.11-2.16-.63-2.63c-.43,0-.47-.17-.07-.35.28-.13.47-.61.77-.71,1.84-1.36,3.9-2.68,5.89-3.92.16-.04.36.19.44.3Z"/><path class="l" d="M67.28,44.81c-.5,1.56-1.97,2.65-3.45,3.25h-2.63c-2.85-1.99-2.04-1.4-3.25-4.35-.1-.32.29-.44.56-.25.01,1.97,1.19,3.34,2.91,3.96l.36-.12c2.5.72,4.92-1.09,4.92-3.69.36-.23.43-.72.2-1.46-.43-1.05-.88-2.1-2.14-2.62.27-.34.51-.53.79-.75.14-.07.23-.22.43-.29.19.46-.17.59-.5.94,1.87,1.21,2.46,3.36,1.81,5.38Z"/><path class="en" d="M65.1,38.48c-.1.27-.36.43-.65.61l-2.92,1.89c-.81.52-1.48,1.13-2.32,1.42-.3-.01-.05-.27.08-.4,1.74-.83,4.37-3.21,5.81-3.52Z"/><path class="ft" d="M66.89,42.14c.62,1.51,0,3.17-1.09,4.35-1.35,1.46-2.84,1.48-4.38.93.33.05.34-.23.46-.39.38-.31.85-.41,1.41-.32.06.32.32.4.78.25-.01-.57,1.2-1.37,1.69-1.28.19-.32.22-1.07.14-1.3-.21-.56-3.29,2.09-3.39,2.51l-.62.14c-.59-.1-.22-.86-.13-1.19.11-.45.6-.63,1.04-.75.51-.14.78-.54,1.16-.81,1.36-.96.58-1.63,1.05-2.13.83-.88.48,1.07,1.82,1.44.14-.62.03-1.03.07-1.45Z"/><path class="bc" d="M63.14,42.33c.19,1.08-.53,1.79-1.38,1.88s-1.7-.59-1.62-1.55c.05-.56,1.45-1.57,2.22-1.31.28.1.67.42.77.98Z"/><path class="x" d="M32.08,43.93l-.06.31c-.43.34-.54.74-.34,1.22.46.06.89.36,1.27.88.57.32,1.08.68,1.52,1.07.29-.28.61-.46.96-.53-1.05-.91-2.17-1.77-3.35-2.57v-.37c.37-.08.76.03,1.13-.01.1.86,2.01,1.94,3.14,1.76.18.85-.23,1.65.34,1.69.02.08-.03.17,0,.25-.57.1-1.25.33-1.94.32-2.04-.05-3.69-1.66-3.98-3.56.23.05.33.13.37-.01.06-.25.09-.69.11-.87.04-.35.4-.12.54-.07.22.08.17.41.29.5Z"/><path class="ap" d="M33.63,39.59l.59.08c1.67,1.14,3.35,2.24,5.06,3.31l.35.46-.17.45c-.48.88-.96,1.81-1.46,2.79-.42.64-.85.87-1.3.71-.49.33-.9.13-.53-.34-.08-.78-.68-1.3-1.8-1.57-.52-.29-.98-.69-1.37-1.14-.11-.12.02-.29.21-.4-.54-.02-.92-1.15-1-1.67-.15-.97.06-1.88.85-2.47-.36-.64.08-.47.58-.19Z"/><path class="v" d="M39.63,43.43c-1.98-1.31-3.94-2.67-6-3.84-.1-.06-.15-.25-.26-.28.34-.75,3.81,2.35,4.7,2.84.58.32,1.81.64,1.57,1.28Z"/><path class="dr" d="M39.46,43.88c-.56,1.46-1.1,3.27-2.58,3.95-.07-.06-.16-.12-.18-.21-.19-.09-.19-.17,0-.25,2.12-.54,2.23-4.46,2.76-3.5Z"/><path class="ci" d="M37.37,42.59c.49.89-.5,1.63-1.06,1.75-.9.18-1.65-.3-1.85-1.19-.14-.66.33-1.84,1.27-1.68.46.09,1.38.66,1.64,1.13Z"/><path class="az" d="M30.3,50.41c-2.73-.48-2.08-.91-5.41-.81.23-.67.92-1.25,1.78-1.3,1.55-.08,3,.8,3.63,2.1Z"/><path class="gp" d="M65.76,45.68c-.39.7-1.02.99-1.69,1.28-.18-.07-.37.04-.69-.04.46-.49.82-.98,1.17-1.6.38-.4.91-.5,1.35-.38-.13.3-.1.53-.14.74Z"/><path class="w" d="M34.47,47.41c-1.12.1-2.38-1.11-2.79-1.95-.5-2.21,1.31-.6,2.11.16,1.71.84,1.93,1.44.68,1.79Z"/><path class="fa" d="M32.08,43.93c.61.49,1.22,1.09,1.91,1.58.73.52,1.82.56,1.99,1.65-.48.27-1.05.2-1.51.25.06-.14.49-.43.38-.65-.29-.62-1.08-.74-1.5-1.25s-.95-.84-1.65-.88c-.06.36-.02.59-.02.84-.11-.22-.35-.75-.26-1.08.08-.28.29-.37.66-.45Z"/><path class="gr" d="M74.05,52.85c0,1.46-1.51,3.36-2.02,4.14-.34-.21-.48.4-.82.43-.35.18-.44.04-.19-.26-.18-.59.09-1.2.79-1.82l1.05-1c.15-.26.33-5.03-1.33-4.13-.57-.19-.87-.34-.36-.84.41-.53,1.49-.3,1.71.35.06-.25.13-.47.21-.66.11-.41.28-.38.32.03l.45,2.69c.06.39-.17.93.18,1.07Z"/><path class="ek" d="M71.19,49.37c.13.84.88-.02,1.75.8.63.59.28,5.03.41,4.5-.05.18-.32.12-.49.26-.78.64-1.3,1.46-1.82,2.23-.73-.38-1.53-.34-2.39-.52-1.23-.38-2.19-2.8-2.59-2.44-.11-1.16.37-2.39,1.04-3.34.72-.74,1.53-1.31,2.44-1.7.83-.37,1.38-.3,1.66.21Z"/><path class="el" d="M72.9,49.72c-.57-.12-1.16-.16-1.71-.35-2.61-.18-3.48,2.13-4.09,1.49.36-1.3,1.66-2.33,3.02-2.82s2.78.42,2.78,1.68Z"/><path class="fv" d="M70.69,56.14c-.38.19-1.35.02-1.74-.17-1.3-.64-1.78-2.29-1.41-3.45.47-1.49,1.88-2.23,3.53-2.07.76.08,1.64.93,1.79,1.78.27,1.6-.62,3.13-2.17,3.91Z"/><path class="fr" d="M72.03,53.97c-.47.81-1.38,1.53-2.32,1.43s-1.68-1.22-1.64-1.98c.05-.95.58-2.15,1.62-2.24.6-.05,1.36.2,1.87.47.76.4.95,1.5.47,2.32Z"/><path class="cw" d="M71.27,52.46c.28.68.19,1.33-.05,1.63-.34.43-1.1.78-1.66.41s-1.07-1.26-.71-1.9c.43-.79,2.1-.92,2.42-.14Z"/><path class="ev" d="M11.39,4.55c.15.22-.06.38-.63.48.28.45-.32,1.47-.65,1.89-.09,2.56.06,5.13.46,7.66.48,1.6,1.22,3.02,2.22,4.26l-.05.31c.09.2.03.27-.18.18-3.02-3.06-5.98-6.2-8.37-9.95C3.27,7.95-.48,2.2.05.89c.07-.18.38-.15.62-.11,3.88.59,7.29,2.2,10.72,3.77Z"/><path class="cn" d="M10.08,5c-.34.99-1.88.04-2.48-.32-.71-.44-1.61-.49-2.37-.88-.81-.41-1.69-.8-2.64-.34.3.56.84.84.79,1.3-.11,1.01.8,1.25,1.17,1.86.66,1.11,1.09,2.19,2.48,2.6.85.25,1.07,1.78,1.7,2.03.86.34.53.9.71,1.56-.28.37-.64.33-1.07-.12-.99-1.29-2.12-2.42-3.39-3.4-.78-1.12-1.53-2.26-2.26-3.4l-.72-1.38c-.79-.84-.33-2.43.72-2.4,1.71.05,5.53,1.75,7.25,2.66.06.03.08.12.09.23Z"/><path class="bs" d="M9.46,12.81l1.01,3.71c-1.94-1.76-7.28-8.59-7.74-10.63.71.07,1.03.84,1.29,1.48.97,2.35,1.57,1.19,3.21,3.32.65.85,1.24,1.77,2.22,2.11Z"/><path class="gw" d="M10.08,5c-.82-.02-1.5-.59-2.27-.97-1.49-.73-3.06-1.12-4.62-1.67l-1.27.69c.14,1.05.6,1.9.81,2.84C1.57,4.67.93,3.01.26,1.26c.39-.57,11.81,3.46,9.81,3.74Z"/><path class="bz" d="M10.34,7.4c.41.93.56,2,.45,3.18l.31,3.16-.33.85h-.21c-.54-1.89-.88-3.75-.66-5.91.07-.68-.09-1.21.2-1.76.12.03.19.19.23.47Z"/><path class="bw" d="M11.83,5.26c-.02.56-.74,1.36-1.33,1.47.49.32.4.49-.18.44.15.06.16.14.02.23-.17-.1-.22-.29-.23-.47.29-.57.15-1.38.65-1.89.42-.24.72.13,1.07.23Z"/><path class="gz" d="M29.26,51.34c.36.71,1.03,1.42.94,2.35-.05.49-.17,1.39-.52,1.69-.47.39-1.11.83-1.76.9-1.04.11-2.26-.81-2.66-1.75-.3-.71-.18-1.67-.14-2.31.26-.79.97-1.3,1.74-1.55.07,0,.15-.02.22,0,.65-.04,1.62.34,2.17.67Z"/><path class="dg" d="M29.04,50.84c.07.17.13.34.22.5-.77.02-1.45-.46-2.17-.67.03-.64,1.45.39,1.96.17Z"/><path class="dg" d="M26.86,50.67c-.55.51-1.35.89-1.74,1.55.09-.9.83-1.6,1.74-1.55Z"/><path class="bx" d="M29.62,53.54c.04,1.15-.62,1.9-1.43,2.15-1.08.32-1.93-.16-2.35-1.21-.33-.83-.42-1.72.19-2.35.56-.58,1.32-.94,2.07-.68.97.33,1.48.95,1.52,2.09Z"/><path class="fz" d="M28.98,52.77c.34.75.02,1.59-.39,1.95-.58.51-1.72.52-2.09-.09-.51-.84-.44-1.86.31-2.34.67-.43,1.72-.52,2.18.48Z"/><path class="al" d="M103.01,47.86c-.75.23-1.07.17-.96-.19l1.09-.6c5.82-1.91,11.67-3.69,17.57-5.33.57-.47.98-1.12,1.2-1.94-.19-.03-.34-.12-.31-.27.81-3.4,1.6-6.83,2.22-10.27l.24-.1c.64-5.18,1.34-10.49,2.11-15.93-9.91,3.31-19.37,7.78-28.61,12.63-.31.6-1.3,1.46-1.97,1.09-4.11,2.59-8.17,5.29-12.16,8.1l-.72.18c-.23.08-.29,0-.19-.21.26-.37.66-.73,1.13-1.08,6.19-4.48,12.61-8.32,19.41-11.88,7.36-3.85,14.98-6.91,22.83-9.56.28-.1.65-.12.78,0s.27.51.25.78c-.49,8.37-2.82,19.62-4.73,27.91-.19.81-.59,1.27-1.43,1.48-6.04,1.51-12.02,3.05-17.77,5.2Z"/><path class="ey" d="M97.74,66.33c.26.93.74,1.84.78,2.96-4.48,2.17-8.78,3.32-13.29,5.53,1.3,3.16,2.46,6.1,3.5,9.25.14.42-.1.82-.54.99l-6.74,2.59c-1.21.46-2.33.81-3.47,1.56.78,6.64.07,11.22-5.19,15.77,1.61,2.27,5.51,8.65,4.34,10.93-.32.48-.48.34-.29-.21-.67-2.44-1.45-4.83-2.33-7.15-.44.16-.59-.33-.46-.72-.12,0-.22-.01-.26-.07-.27-.35-1.46-1.96-1.58-2.2-.03-.06.04-.18.15-.31-.5-.04-.64-.19-.42-.46-.23-.42.45-.79.8-.65l.09-.34c5.48-4.27,5.34-11.78,3.67-17.99l-2.2-7.74.19-.21c-.11-.53-.03-.75.26-.66l.47.05c.59,1.96,1.24,3.88,1.95,5.77l2.77-1.38c.47.28.35-.04-.35-.97-1.21-2.24-2.32-4.53-3.41-6.82-.1-.2-.12-.44-.15-.68s-.02-.49-.01-.75c-.43-.18-.54-.35-.35-.52l2.09.08c.1-.4.3-.4.43,0,.58.03.53.25-.04.36-.18.18-.47.2-.85.07-.08.08-.16.15-.25.16-.37.04.17-.39.27.24.01.08-.07.17-.18.26,1.14,2.41,2.28,4.8,3.41,7.18.86.02,1.31,1.55.78,2.23l-4.03,2.04c.36,1.04.66,2.1.89,3.21,3.17-1.1,6.33-2.28,9.49-3.54-.36-1.37-.84-2.69-1.46-3.98l.22-.63c-.3-.19-.55-.46-.71-.77-.23-.45-1.45-4.01-1.37-4.22.03-.09.11-.16.19-.23-.22-.5-.09-.57.4-.2.71-.49,1.51-.88,2.41-1.18.13-.28.05-.61-.25-1-.42-.31.05-.29.46-.23.48-.24,1.06-.16,1.72.24.05-.2.13-.2.23-.02.77-.4,1.57-.77,2.41-1.1.09.12.17.22.22.2,1.78-.59,3.78-1.47,5.28-2.35.13-.58.05-1.24-.25-1.99l.18-.19c-.1-.51.02-.6.39-.23Z"/><path class="y" d="M102.05,47.67c.22.31.66.06.96.19l-8.51,3.18c-.28.1-.58.37-.71.52-.15.17-.06.57.03.88l3.92,13.88c-.15.04-.29.11-.39.23-.13.02-.23.02-.24,0-1.67-5.03-3-10.26-4.27-15.47.08-.46,7.36-3.06,8.61-3.43.18-.05.39-.03.6.02Z"/><path class="fy" d="M82.53,35.02c.04.09.1.17.19.21,0,.17-.01.32-.09.39-1.27,1.15-2.84,2.3-4.23,3.28v.52c-.57.17-.78.59-.65,1.24.16.01.29.04.33.11.44.86.97,2.11,1.29,3.03.03.08-.03.2-.11.32.12.38.06.53-.2.43-.71-1.6-1.78-3.11-2.33-4.98,1.8-1.68,3.72-3.39,5.8-4.55Z"/><path class="by" d="M83.85,53.07c-.19.23-.39.35-.66.18-.07-.15-.16-.28-.22-.43l-3.71-8.26v-.44c-.52-1.13-.88-2.37-1.51-3.46-.3-.77.21-1.24.8-.58,1.78,4.24,3.64,8.43,5.59,12.57l-.29.41Z"/><path class="cp" d="M82.97,52.82c-.19-.1-.38-.25-.5-.51l-3.41-7.75c.11-.12.17-.27.2-.43l3.87,8.36c.09.2.06.4-.16.33Z"/><path class="cg" d="M83.85,53.07c1.23.99,1.97,2.81,1.93,4.37.33-.04.6.3.81,1,.11.68.38,1.25.8,1.73.16.76-.02.9-.54.42-.23.33-.4.26-.4-.14-.33,0-.44-.2-.31-.63l-.38-.87c-.06-.33-.34-.67-.49-1.03l-2.08-4.67c.09-.08.16-.18.25-.28.12-.15.29.02.42.1Z"/><path class="ce" d="M86.46,60.45c.48.35.32.53-.23.44-.39-.16-.37-.52-.61-.74.08,0,.33,0,.32-.14-.01-.43-.18-.73-.17-1.06.47.33.74.91.69,1.5Z"/><path class="fn" d="M123.83,28.47c-.53,3.89-1.35,8.05-2.4,11.72.29.21.19.34-.17.21-.18.7-.97.83-1.26.09-.62.56-1.21.78-1.76.67-.01.58-.21.6-.48.09-.85.11-1.73.18-2.62.23-.13.34-.41.33-.83-.04l-1.96.9c-.37-.12-.56-.56-.37-.87-.59.37-1.04.39-1.36.09-.36.1-.61-.11-.75-.65l-.82.22c-.1.18-.17.16-.22-.04-.89.4-.11-.48.31-.89-.09-.42-.41-.4-.96.06-.01.14-.04.28-.11.38-.33.48-3.57,2.48-4.05,2.42-.72-.09-.36-1.15.44-1.05-.35-.69-.98-.62-1.89.22l-.45-.22c.28.87-2.15,1.98-2.04.63-.62.55-1.57,1.35-1.88.24-.43.5-1.81,1.65-2.08.59-.04-.16.41-.43.61-.45l-.03-.5c.33-.16.31-.29-.04-.39-.34.42-.71.66-1.1.73.14.79-1.46,1.56-1.45.48-.22.4-.51.56-.95.34-.27.14-.46.11-.39-.1.25-.72.5-1.4.92-2.03-.49.5-.88.69-1.51.89.4.81-1.07,1.77-1.67,1.05-.65.66-1.35,1.26-2.09,1.8-.72-.32-.63-.98.27-1.98l-.39.03c-.8,1.15-1.38,1.35-1.72.59-.51.86-1.4,1.38-1.43.12-.18.41-.46.61-.82.6-.36-.35-.83-.61-1.31-.82-.36-.16,1.03,4.73,1.39,4.84-.19.9-.05,1.65.43,2.24-.42.66-.16,1.11.77,1.34.59.77.93,1.89.81,2.91,1.15.5,1.31.99.49,1.47l-.04.34c.06.19-.05.38-.33.57-.31-.19-.56-.22-.73-.1-.59-1.47-1.27-2.91-1.93-4.37l-4.18-9.16c-.61-1.34-1.23-2.57-1.58-3.9-.3.25-.22.5-.35.66-.19-.33-.52-.72-.34-1.09s.71-.43.99-.66c5.33-4.28,11.44-8.28,17.2-11.96.64-.34,1.18-1.04,1.97-1.09,9.02-4.63,17.97-9.18,27.87-12.26l.66.02c-.12,1.27-.27,2.54-.43,3.81-.45,3.62-.97,7.42-1.63,10.93,0,.05-.09.09-.19.12Z"/><path class="ae" d="M102.05,47.67c-3.01,1.05-6,2.09-9.03,3.52.31,1.38.59,2.61.98,3.92l3.35,11.45c.21.71.25,1.54.6,2.34l-2.45,1.03-5.12,2.04c-.33.13-.63.25-.86.02-.09-.86.47-1.33,1.67-1.41-.22-1.44-.29-2.16,1.35-2.49.25-1.38,1.35-.54.51.62-.36.16-1.43,1.2-.75,1.55.27.13,4.26-1.5,4.61-2.04-1.85-5.7-3.41-11.44-4.68-17.22l.19-.5c8.15-3.5,16.78-6.24,25.13-8.45l.42.34c.42-.14.72-.37.89-.69.97-.21,1.71-.62,2.41-1.3l.17-.21c-.24-.4.08-.67.47-.39-.13.67-.25,1.95-1.12,2.19-6.36,1.74-12.6,3.54-18.74,5.69Z"/><path class="ch" d="M124.06,29.16c-.3.37-.37.14-.23-.69l.85-5.94c.41-2.88.84-5.64,1.19-8.71-3.39.76-6.44,2.02-9.53,3.39-.63.28-1.25.41-1.74.94-1.09.05-1.96.56-2.9.99l-4.62,2.14-8.48,4.34c-.4.21-.71.22-1.05.24,8.98-5.29,18.59-9.47,28.77-12.89-.37,5-1.13,9.72-1.97,14.5l-.3,1.69Z"/><path class="ch" d="M95.59,26.95c.03.37-.25.5-.6.71-5.43,3.27-10.6,6.81-15.54,10.76-.37.3-.63.57-1.05.48,1.42-1.19,2.79-2.64,4.32-3.68,4.22-2.86,8.38-5.87,12.87-8.28Z"/><path class="eb" d="M124.06,29.16l-2.15,10.64c-.17.12-.35.23-.47.39-.14-.09-.25-.24-.27-.38-.02-.19.1-.36.2-.55.98-1.98,1.72-8.55,2.47-10.8.04.22-.04.61.23.69Z"/><path class="ed" d="M84.5,77.91l.48-.08,1.46,1.76c.6,1.57,1.43,3.1,1.77,4.88l-10.29,3.95-.75-3.03c-.09-.37-.52-.97-.06-1.2l4.2-2.16-.75-1.76c-.1-.28-.06-.43.11-.47l.19-.3c-1.18-2.01-.35-3,1.3-1.22.5-.66,1.05-.45,1.67.63-.53-1.33.43-3.11.69-.99Z"/><path class="k" d="M84.93,72.18c1.3-.26,2.2-.05,2.7.63l-1.58.73c-.69.15-1.06.36-1.11.63-.14.05-.24.18-.4.2-.13.66.06,1.55.57,2.65.04.59-.16.88-.61.88-.16-.21-.14-.54-.44-.71-.02,1.05.51,1.79.18,2.77-.69-.56-1.06-1.28-1.64-1.91.05.45.29.81.07,1.25l-1.97-1.73c-.16.93.52,1.52.56,2.42-.29.04-.43-.18-.6-.21-.14-.07-.26-.15-.32-.26-.84-1.44-3.04-5.28-3.29-6.69-.05-.29,1.08-.16,1.11-.11s-1.25.07-.87-.32c.28,0,.57-.09.85-.07,1.17-.18,2.38-.23,3.61-.14l2.68-.24.48.22Z"/><path class="cx" d="M86.85,60.59c.53.08,1.26.6,1.34,1.12.73-.32,2.24-.77,2.74.36l.03,1.2c2.11,1.12,2.51,2.2,1.17,3.23.54.5.9.89.39,1.59-.22.41-.75.49-1.14.83-.48.41.35,1.27.02,1.81-.39.63-1.23-.29-1.9,1.26l-.23.02c-.58-.19-.6-.51.03-.66-.06-.59.02-.87.7-1.06.43-.21.54-.66.34-1.33.22-.55.62-.97,1.21-1.26-.58-.45-.87-1.35-.3-1.79-.05-.32.05-.53.3-.61l-.98-.94c-.25.12-.34.02-.2-.21-.58-.35-.12-1.11-.29-1.64-.22-.69-1.24.13-1.65.02-.92-.25-1.39-1.31-2.2-1.65-.01-.17.18-.32.23-.44.13.05.26.1.4.14Z"/><path class="bu" d="M87.56,71.77c-.19-.01-.4.03-.46.23l-.13.19c-.69-.03-1.37-.04-2.05,0-2.24.3-4.52.3-6.78.16l.04-.36c1.75-.1,3.51.17,5.22-.16.77-.15,3.35-.41,4.16-.06Z"/><path class="ej" d="M86.44,79.59c-.91-.15-1.42-.98-1.94-1.68.77-2.23-1.17-3.38.05-3.53.09.68.35,1.41.72,2.08.58,1.06.79,2.13,1.18,3.13Z"/><path class="hm" d="M77.3,72.42c.36.34,1.3.1,2,.31-.58.32-1.22.02-2.05.17.98,2.54,2.28,4.66,3.41,6.89.03.17-.06.32-.11.47.05.11-5.57-10.02-3.25-7.85Z"/><path class="fg" d="M87.1,72c.37.15.81.41,1.26.74-1.13.59-2.27,1.04-3.43,1.43-.1,0-.23-.03-.24-.11-.03-.13.11-.23.26-.29l2.36-.99c-.59-1.23-1.9.14-2.38-.6.66-.31,1.45-.19,2.18-.18Z"/><path class="gs" d="M86.85,56.97c.66-.6.92.25.29.85.17.79.49,1.42.95,1.87v.76c.65.49,1.37,1.57.11,1.27-.48-.33-.98-.65-1.34-1.12.39.12.66-.06.1-.22l-1.17-2.93c0-.17-.05-.41.16-.48.28-.1.83.42.9,0Z"/><path class="hh" d="M102.11,41.99c.39-.23.64-.21.75.05.53-.42,1.48-.96,1.6-.05-.19.17-.58.32-.41.76,1.47-.82,2.72-1.81,4.14-2.51.4-.38.77-.5,1.11-.36-.67.73-.82,1.13-.46,1.2l.22.04.27.22c.53-.13.96-.06,1.3.21l3.42-1.48-1.97,1.91,3.41-1.57c.46.33-1.34.74-.35,1.06.88-.1,1.76-.17,2.62-.23l.48-.09c1.41-.33.93.93-.28,1.22l-5.69,1.53c-1.4.38-2.66.93-4.1,1.35-5.25,1.56-10.33,3.35-15.36,5.45-.67-.09.96,5.08,1.11,5.65l.79,2.95c.4,1.5.88,2.87,1.32,4.36l1.41,4.87c-2.11,1.28-3.18,1.45-5.4,2.41-.09-.5-.58-1.23-.27-1.67.4-.58,1.3-.75,1.17-1.66-.3.05-.09.56-.42.47.01-.91-.84-1.17-.8-1.63.03-.38,1.28-1.12.73-1.53l-1.76-1.33c-.4-.3.05-1.12-.26-1.56-.45-.63-1.51.18-2.25-.33.08-.02.2.04.38-.07-.32-.54-.81-.9-1.26-1.31l.59-.26c-.71-.43-.87-.93-.91-1.64-.02-.33-.62-.59-.43-.93.09-.16.46-.12.55-.26.16-.24-.18-.22-.27-.29-.25-.2-.6-.52-.86-.81.5-.1.88.22,1.14-.2-2.31-.57-.27-1.51-1.64-2.53.85-1.3-2.22-.69-1.04-2.46-.51-.34-.65-.96-.51-1.5.22-.83-.24-1.22-.52-1.84-.19-.42-1.4-4.14-.61-4.35.16-.04.34-.22.45.04l.24.56c.62-.46.94-1.08,1.35-1.69-.14.8-.68,1.45-.5,2.2.68-.82.97-1.83,1.9-2.15l-.84,2.39c.83-.93,1.47-1.92,2.5-2.57,0,.98-.88,1.26-1.03,2.1.64-.32.81-1.15,1.53-1.36.29.14.56.08,1.24-.15-.36.85-1.17,1.37-1.47,2.39l3.12-2.89c.24.62-.48.73-.43,1.34.52-.26.97-.64,1.29-1.05.45-.39.8-.46,1.06-.21-.48,1.02-.51,1.5-.09,1.45.95-.79,1.73-1.78,2.8-2.33-.59.93-1.24,1.44-1.6,2.32.4-.34.83-.63,1.21-.81.74-.39,1.13-.33,1.18.16-.04.18-.37.31-.11.56,1.66-.95,3.45-3.73,4.66-3.94-.85,1.39-1.78,2.5-2.87,3.65l3.92-2.64-2.04,2.32c.8-.18,1.3-.63,1.83-.97Z"/><path class="u" d="M121.27,40.4c.4,1.14-2.15,1.67-3.31,1.98.08-.13.23-.23.45-.33.29-.13.33-.52.16-.72-.07-.09-.15-.11-.33-.17.63-.5,1.3-.95,2.15-1.38.18.23.02.4,0,.71.32.18.59-.02.88-.09Z"/><path class="aq" d="M93.13,43.67c-.13.11-.14.56-.67.5-.16-.55.24-1.16.48-1.83-.26-.05-.53.1-.79.09.64-.81,1.48-1.6,2.61-1.91-.17.52-2.29,3.49-1.64,3.15Z"/><path class="fe" d="M104.46,42c-.54-.36-1.14.34-1.71.62-.2-.24-.35-.57-.64-.63.49-.31.95-.73,1.6-.95.21-.07.49.29.71.19.53-.24.89-.74,1.51-.73-.24.78-.97,1.03-1.48,1.5Z"/><path class="ah" d="M110.63,41.56c-.31.25-.87.13-1.39.28l-1.06.31c.25-.5.93-.49.89-1.02.3-.69,1.25-.8,1.95-1.12l-.93.96c.55-.15.85-.18,1.16-.22-.29.15-.51.18-.64.42-.06.12-.26.24.02.38Z"/><path class="h" d="M96.72,43.01c-.23-.09-.49,0-.79.19-.25.15-.35-.21-.39-.35.2-.5.54-.98,1.11-1.26.2.1.39.36.59.31.59-.13.57-.88,1.24-.98-.52.78-1.03,1.66-1.77,2.08Z"/><path class="ah" d="M108.84,41.09c-.22.25-.52.57-.94.4.3-.61.78-.92,1.19-1.44-.38-.04-.68.09-.91.2.54-.58,1.22-1.22,2.19-1.27.04.37-2.32,2.19-1.54,2.1Z"/><path class="u" d="M117.77,41.26c-.69.77-1.71.53-2.62.23,1.69-1.31,1.54-.01,2.62-.23Z"/><path class="fb" d="M66.23,106.34c.24-.73.89-.39.43.22-.86.09-1.71.17-2.57.23l.44.3c1.5,2.08,3.11,4.06,4.83,5.95l-.12.26c.33.27.21.39-.18.18-1.99-2.1-4.07-4.13-5.58-6.83-4.46-.55-10.04-2.46-14.45-2.39-4.72.08-9.86,1.46-14.54,2.31-2.25,3.07-6.43,8.41-9.91,9.88-.6.26-1.32.26-1.84.57-.28.07-.53.07-.43-.25.09-.44.43-.78,1.03-1.05.09-.47.24-.84.47-1.11-.19-.33-.11-.4.24-.24.47-.43.42-.06.25.45l.27.63c2.83-1.59,5.24-3.76,7.24-6.52.57-.94,1.23-1.73,1.98-2.36-.65-.07-1.31-.14-1.99-.22l.07-.26c-.14-.33.01-.33.44,0,.22-.57.59-.54.92-.14h.8c.69-.58,1.63-.79,2.81-.65,3.97-.96,7.97-1.62,12-1.96,4.59.48,9.16,1.23,13.71,2.27,1.24.05,2.6.12,3.67.73Z"/><path class="bq" d="M23.59,79.17l.36.31-2.1,7.02c-1.62,5.49-1.32,13.23,3.7,16.76l.44.9c.74-.25.76.57.02.4-.14.12-.31.21-.49.22-.16,0-2.17-1.72-2.2-2.17-3.97-4.01-3.97-10.17-2.87-15.34.75-2.95,1.58-5.87,2.46-8.77,0-.07.03-.14.03-.21.34-.97.61-1.98.81-3.02,0-1.01.24-1.83.71-2.46.15-.6.81-.26.37.24-.17,2.12-.58,4.15-1.24,6.11Z"/><path class="gd" d="M82.7,20.3c-3.4,3.04-6.88,5.95-11.02,8.19-.27.15-.84.72-.69,1.06,2.5,5.65,1.96,10.83,2.63,13.51.22.85.15,1.21-.22,1.09-.32-.3-.48-.75-.48-1.34-.24-4.44-1.09-8.71-2.54-12.82-.33-.44-.48-.87-.47-1.29-.22-.38-.18-.43.2-.2,4.4-2.07,8.41-5.27,12.07-8.5l.28.09c-.23.19.04.4.23.22Z"/><path class="fl" d="M23.33,102.62c.14.29.09.37-.15.24-1.76-1.89-3.03-4.46-3.38-7.18-.24-1.87-.12-3.76-.03-5.63s.67-3.55,1.16-5.3l1.63-5.77c.07-.26.13-.45.36-.46-.38,2.97-1.75,5.78-2.23,8.81l-.48,2.99c-.72,4.46.44,8.9,3.12,12.31Z"/><path class="dk" d="M22.52,55.64c.6.14.43.56-.05.88l-5.13,2.82c-2.46,1.75-4.91,3.44-7.35,5.06-.72.02-1.25.29-1.6.8l.11.29c-.7.43-1.21.98-1.51,1.64h-.31c-.23.81-1.12-.42-.68-.77l-.09-.27c.64-.37,1.26-.77,1.86-1.19l-.28-.04c.15-.44-.17-.99.21-1.35.53.03,1.76.08,2.16-.19,2.42-2.09,5.03-3.83,7.83-5.24,1.18-.96,2.89-2.03,4.34-2.49.14-.04.31,0,.48.07Z"/><path class="ct" d="M72.38,112.2c.66.17,1.15.7,1.48,1.6.24.39.31.89.2,1.49.26.23.49.6.71,1.12.9.61,1.22.15.97-1.38-.62.03-.89-1.23-.4-1.54-.16-.41-.14-.46.22-.19.19-.09.48-.12.54.03l.71,2.37.29.21c.05.59-.32,1.05-.68,1.4-.52.51-1.07.17-1.63.06-2.54-.52-4.13-2.21-5.74-3.91l.18-.18c.07-.19.14-.19.24,0,.94.79,1.92,1.55,2.93,2.3.26-.07.54,0,.84.21-.22-.45-.27-.72-.08-1.22-.84-.11-.99-1.1-1.03-1.84-1.77-.31.15-2.22.23-.54Z"/><path class="z" d="M78.54,55.62c2.44,1.36,4.97,2.69,7.07,4.54.5-.27.71.3.61.74l.32-.13c.58.56,1.21,1.03,1.9,1.42,1.57-.53,2.21.13,1.92,1.97.26.68.06.54-.47.18-.42-.03-.71-.4-.89-1.12-.48.1-.93.06-1.35-.13-3.03-2.5-6.27-4.88-9.85-6.63-.57-.29-.73-.63-.49-1.01.24-.19.65-.14,1.23.17Z"/><path class="ar" d="M22.5,110.03c.17.27.09.65-.22,1.16-.36,1.1-.28,1.52.23,1.27.07-1.06.44-1.56,1.12-1.51.19-.08.24-.02.17.18l.14.19c-1.17,1.72-1.71,3.54-1.62,5.44.14.03.26.26.43.25-.45.27-.91.22-1.38-.26-1.73-1.73,0-5.33.98-6.98.22-.45.3-.18.15.25Z"/><path class="o" d="M17.52,57.88c.32-.2.38-.15.18.18-2.68,1.53-5.13,3.4-7.59,5.4-.39.32-2.38.29-2.37.37l-.02-.34c.53-.43,1.28-.08,1.98-.38,2.58-1.86,5-3.99,7.83-5.22Z"/><path class="dj" d="M24.73,69.61c.16.02.28.05.28.09.07.85.22,2.82-.54,3.13-.15,1.81-.59,3.62-1.29,5.39-.13.03-.2.06-.23.08-.04-1.52,1.26-4.91.23-5-.42-.21-.48-.36-.18-.45,0-.25.2-.4.58-.45.25-.82.5-1.61.74-2.36l-.03-.63c-.84-.89.51-2.52.86-.7-.41.11-.42.53-.42.9Z"/><path class="bf" d="M26.02,104.57l.48-.22c.77.55,1.6.91,2.49,1.09l.26.45-.08.5c-1.1.16-2.16-.11-3.16-.8-.29.65-.64.89-1.05.73-.33.78-.83,1.79-1.57,2.15-.29.28-.35.16-.24-.21.56-1.23,1.4-2.16,2.2-3.37-1.04-.53-1.54-1.36-2.17-2.04,0-.11-.05-.32.15-.24.68.87,1.79,1.42,2.69,1.95Z"/><path class="bg" d="M74.95,50.88c-.36.02-.21.51-.23,1.09-.32.02-.22-.41-.27-.65-.41-.74-.48-1.59-.22-2.56-.25-1.42-.58-2.84-.97-4.26l.15-.36c.37-.23.21-.72.22-1.09l1.21,4.86c.26,1.05.32,2.02.12,2.96Z"/><path class="es" d="M6.68,67.13c.43-.2.42.18.18.53.15.35-.02.73-.5,1.14.9.83,1.32,1.83.53,2.86l.47.13c.44.27.17.26-.29.2-.33-.08-.91-.26-.77-.76.1-.36.31-.69.16-1.05-.2-.48-.96-.56-1.07-.95-.18-.65.81-1.19.67-1.76-.08-.35-.47-.56-.46-.9,0-.37.14-.48.4-.21-.07.42.28.71.68.79Z"/><path class="ax" d="M23.38,55.22c-.04.64-.34.81-.87.42-1.67.66-3.26,1.53-4.82,2.42l-.18-.18c1.69-1.31,3.66-2.28,5.66-3.04.13.08.18.23.2.38Z"/><path class="ac" d="M14.69,73.07c.33.14.18.29-.43.43-1.01.05-2-.2-3.07-.33-.75-.1-2.07.94-2.75.58-.13-.17-.07-.37.15-.37.2-.5,1.44-.85,2.01-.96.73-.14,1.14-.1,1.83.21.86,0,1.62.14,2.26.43Z"/><path class="fw" d="M23,72.85c.08.14.14.29.18.45-.17-.34-4.14.08-4.79.16-1.43.16-2.81-.03-4.14.05l.43-.43.19-.16c2.72.18,5.45.06,8.17-.38l-.04.32Z"/><path class="fm" d="M42.96,18.49c.19.06.19.13,0,.22-.05.14-.11.26-.19.29-1.3.44-3.03.85-4.35,1.02.01.35-.5.48-.7.19-.09-.15-.27-.19-.44-.19,1.83-.73,3.72-1.39,5.68-1.52Z"/><path class="gi" d="M75.1,53.87c1.2.44,2.51.87,3.44,1.75-.4.23-.82-.08-1.23-.17l-.44.19c-.5-.13-2.58-.94-2.14-1.52.08-.09.23-.27.36-.25Z"/><path class="dp" d="M62.56,20.86c.31.26.19.35-.2.23-1.44-.59-2.88-1.2-4.4-1.52v-.43c1.54.53,3.21.84,4.6,1.72Z"/><path class="q" d="M6,66.34c-.11.1-.29.12-.4.21,0-.1-.18-.19-.13-.3.06-.13.1-.28.26-.37l1.76-1.04c.11-.06.25-.38.37-.36,1.15.28-1.31,1.34-1.87,1.86Z"/><path class="as" d="M8.15,71.78c.5.22,1.07,1.25.43,1.6.04.14-.03.28-.15.37-.56-.3.21-1.41-1.36-1.77.09-.04.41-.03.29-.2.36-.59.51-.66.8,0Z"/><path class="am" d="M23.39,108.48c.11.4-.46,1.54-.89,1.55-.01-.09.06-.37-.15-.25.24-.41.61-1.09.8-1.51l.24.21Z"/><path class="gu" d="M74.48,77.88l2.02,7.06c.9,3.16,1.41,6.35,1.2,9.65-.24,3.79-1.93,7.55-4.98,9.56-.66.38-.77.09-.2-.41l.29-.72c3.37-3.08,4.6-8.08,3.8-12.55l.27-.67-.49-1.18c-1.24-4.93-2.55-9.87-3.92-14.79-.29-2.06-.27-4.13.07-6.2-.3-.3-.16-.42.22-.22.27.45.35,1.14.41,1.7.29,2.72.62,5.41,1.36,8.13l-.04.63Z"/><path class="bu" d="M73.4,68.94c.14.74.3,1.48.5,2.22,1.23.24,2.48.41,3.75.53l.1.3-1.32-.02c-.19,0-.36.02-.41.13-.05.09-.01.24,0,.33-.64-.27-1.36-.31-2.17-.16.1,1.68.55,3.22.89,4.95-.17.18-.23.42-.26.66-1.18-4.13-1.41-6.13-1.73-10.46-.66-.58.23-1.18.85-.34-.03.64-.1,1.26-.2,1.86Z"/><path class="ge" d="M76.82,115.7c-.74-.53-.65-1.7-1.26-2.4-.28.03-.43-.46-.18-.63l-1.21-3.34c-.21-.78-.1-1.04.31-.78,1.23,2.21,2.35,4.6,2.33,7.15Z"/><path class="fc" d="M74.49,108.55c-.81.05,1.43,3.02.9,4.12-.51-.19-1.12-1.21-1.1-1.76-.81-.52-1.24-2.26-.48-2.86-.48-.52-.17-.79.23-.21.1.24.33.48.46.72Z"/><path class="e" d="M72.34,105.26c.55.88,1.3,1.61,1.69,2.58-.19-.14-.35.02-.23.21-.12.16-.28.23-.47.19-.5-1.02-1.16-1.82-1.98-2.38-.14-.17-.1-.29.11-.34-.08-.41.55-.6.86-.25Z"/><path class="co" d="M72.72,104.15c-.28.19-.45.54-.8.65.05.33-.23.47-.47.24-1.03.48-.9-1.05-.03-1.03.28-.37.71-.66,1.1-.26.04.15-.03.4.2.41Z"/><path class="er" d="M63.38,104.84c.11.16.35.23.46.38.25.2.53.13.83-.22.39,1.21,1.41.28,1.56,1.34-5.63-.27-12.4-2.78-17.37-2.7-4.43.07-10.3,1.86-14.81,2.31-1.96.27-1.23-.99.2-.9.26-.33.97-.3,1.29-.42,1.26.04,2.52-.15,3.8-.57,3.02-.71,6.05-1.19,9.09-1.44,4.55.41,9.04,1.16,13.49,2.26.52-.05,1.01-.05,1.46-.03Z"/><path class="j" d="M33.79,106.57c-1.9,2.88-6.11,8.06-9.38,9.46-.41-.19-.28-.9-.11-1.21.21-1.18,1.2-3.05,2.34-3.44.24,0,.38.19.42.6-1.12,1.78-1.22,2.23-.3,1.35.47-.71.99-1.06,1.58-1.04l-.14-.27c1.21-1.32,2.4-2.7,3.55-4.15l.51-.05c.15-.41.89-.66.86-1.22,0-.24.47-.2.65-.05Z"/><path class="ck" d="M25.54,111.82c-.12.83-.84,2-1.49,2.55-.04.09-.07.32-.24.24-.22.15-.37.5-.44,1.06-1.56,1.3-1.15-.98-.63-1.95l1.33-2.65c-.13-.9,1.97-1.97,1.89-.56-.29.4-.43.84-.43,1.31Z"/><path class="eg" d="M23.82,114.61c.1,1.07-.45,1.9-1.49,2.16-1.43-.28,1-4.88,1.48-5.64-.08-.39.1-.44.28-.06.43.58-1.35,2.11-1.55,4.43-.02.24.58.22.6.06,0,.02.41-1.82.68-.95Z"/><path class="fs" d="M64.67,106.83c-.19.07,1.67,2.57,1.82,2.41,1.13.91,2.36,2.28,3.24,3.46.05.07,0,.21-.07.37.1.17.02.23-.19.21h-.24c-.08-.21-.2-.43-.41-.65-1.76-1.87-3.38-3.78-4.75-5.85.19-.13.44-.14.59.04Z"/><path class="bt" d="M26.87,110.95c.25.14.06.51-.23.43-1.1.86-1.64,2.23-2.34,3.44-.06-.15-.01-.49-.25-.45.4-.9.98-1.71,1.49-2.55-.33-.64.93-1.6,1.33-.87Z"/><path class="cv" d="M26.21,73.73c.37-.71.86-.93.65.03.19-.36-.77,1.81-.58,1.98.06.06.18.05.34.18-.3.91-.84,1.6-1.06,2.61.37-.26.58-.55,1.05-.5-.27.95-1.8,3.1-.91,3.12-.71,1.12-1.19,2.38-1.68,3.65.43-.14.64-.44,1.08-.49l-1.68,2.58.67-.06c.74-.06-1.09,1.16-1.4,2.33.3.21.38.58.24,1.11.41.09.55.22.43.4-.18.18-.21.46-.27.7-.18.62-.08.83.3.64.23.16.07.41-.01.62.06.64-.05,1.21-.31,1.72.47.03.57.41.31,1.16.62.47.76.9.38,1.52.13.65-.12,1.27-.29,1.94.43.04.42-.32.73-.36l-.11,2.76.75-1.11.18,2.33c.72.07.2-1.68.81-1.41.45.2-.29,1.38.16,3.01-.74-.6-2.28-1.69-2.88-2.55-1.46-2.1-2.14-4.52-2.46-7.01-.41-3.16.07-5.89.97-8.88l1.96-6.56c.66-1.93,1.07-3.94,1.22-6.04-.12-.44.35-1.04.78-1.17.25.67,0,1.3.13,2.12.25.02.32-.25.5-.36Z"/><path class="aw" d="M25.59,71.96c.02.38-.08.79-.56,1.01-.4,1.2-.46,2.45-.41,3.72-.59.93-.19,1.78-1.03,2.49l.44-2.21c.03-.17,1.06-4.68.44-4.14l.26-3.22c.02-.26.17-.71.45-.9.23,1.27.06,2.29.41,3.25Z"/><path class="c" d="M69.91,28.69c1.75,2.97,2.34,6.43,2.72,9.92l.24,2.15c.13,1.21.27,2.29.54,3.39s.49,2.29.86,3.51.38,2.5.18,3.67c-.09.51-.39.94-.39,1.52l-.31.13c-.08-1.04-.29-2.07-.63-3.09.18-.16.28-.43.31-.8.16-1-.02-2.1-.55-3.3-.64-3.38-1.12-6.76-1.42-10.14l-1.14-4.18c-.37-.91-.78-1.78-1.23-2.61-.11-.42-.78-.74-.45-1.22.4-.3,1.39.53,1.28,1.04Z"/><path class="ca" d="M24.25,56.3c.26.59.13,1.25-.62,1.12-.73.35-1.38.83-1.96,1.43l-1.08.36c.36.47.29.57-.27.55-.57-.25-1.16-.6-1.89-.38.31.47.85.65,1.03,1.22-.66.07-1.41-.22-1.75.3l-.44.48c-.82-.05-1.31.27-1.47.98l-1.78.25c-.29.1-.16.23,0,.25.21.02.34.11.46.1.06.27-.15.44-.65.51-.8.84-1.68,1.22-2.63,1.15l-.82.59c-.6.4-1.36.29-1.97-.02.02-1.76.8-.39,2.66-1.9,3.4-2.75,7-5.13,10.96-7.03.34-.16.57-.29.51-.63.3-.12.56-.33.87-.42.5.13.74.61.87,1.09Z"/><path class="do" d="M73.8,108.05c.1.95.1,1.96.48,2.86-.03.14-.18.12-.44-.06h-.59c.04.69-.02,2.02-.88,1.34l-.7-.41c.2.36.28.69.47.95.65,2.01-.76,1.72-1.88.59-1.15-1.51-2.41-2.87-3.77-4.08.05-.43-.29-.93-.46-1.36-.11-.28.71-.85.93-.74.94.96.78.02,3.16.49.23-.76.65-1.37,1.23-1.79,1.11-.81,1.91,2.02,2.45,2.19Z"/><path class="ec" d="M73.85,110.85c.63.54,1.45,1.79,1.49,2.63.23.44.3,1.06.4,1.54.47,2.25-.98,2.16-1.49.21l-.19.04c-.39-1.11-1.06-2.09-1.68-3.09.95-.2-.05-1.94.81-1.88.21.02.55.37.66.53Z"/><path class="eo" d="M72.15,112.74c.42.58.79,1.17,1.03,1.84.11.61.12,1.25-.68,1.05-.47-.11-2.7-1.97-2.82-2.55-1.01-1.28-2.36-2.46-3.17-3.84.5,0,.76.06,1.11.48l.9,1.09c.67.81,1.31,1.51,1.96,2.34.33.43,1.08.97,1.5.49.22-.25-.18-.82.18-.91Z"/><path class="dl" d="M73.17,114.58c.2.56.76,1.03.42,1.89-1.64-.76-3.14-1.79-4.11-3.18.06-.08.12-.15.19-.21.71.9,1.98,1.39,2.86,2.31.54-.25.39-.59.64-.81Z"/><path class="ff" d="M75.74,115.03c.11.52.58,1.25.35,1.78-.38.5-1.15.14-1.54-.17-.35-.28-.33-.89-.49-1.36.05-.2-.07-.43.07-.7.24.21.72,2.12,1.35,1.68.29-.2-.07-1.56.26-1.23Z"/><path class="de" d="M74.29,110.91c.26.62.76,1.18,1.1,1.76.1.17.05.49.18.63-.12-.01-.19.09-.22.19-.37-.73-1.08-2-1.49-2.63-.02-.21.14-.16.22-.08.08.08.17.1.22.14Z"/><path class="gl" d="M74.74,54.12c.73.66,1.88.63,2.58,1.33.41.41.76.73,1.39,1.04,2.27,1.11,4.41,2.44,6.38,4.01l2.81,2.23c.38.3,1.13-.13,1.45.22.37.4.32,1.01.55,1.4-.97.6-2.89-.21-3.68-1.03-.26.07-.56-.15-.9-.66l-.62-.04c-.2-.38-.63-.68-.86-1.04-.63-.23-1.24-.32-1.83-.25l-.31-.24c-.02-.17-.2-.27-.25-.41l-1.15-.84c-.39-.33-.8-.64-1.23-.92l-.63-.13c-.5.48-1.12.41-1.12-.29-.37-.08-.69-.31-.95-.67-.49.3-.82.25-.97-.13-.42.39-.55.21-.24-.28l-.56-.58c-1.07-.24-1.39-.7-.96-1.39.36-.51.2-1.53,1.1-1.33Z"/><path class="fq" d="M29.26,105.89c.68-.34,1.09.58,1.22,1.43.33-.35.67-.39.94-.24.44.23.8.34.85.76-.34.91-3.03,3.69-3.92,4.47l-.52.28c-.81-.16-1.13-.7-.95-1.63-.52,0-.91.63-1.33.87-.26-.2-.48-.46-.36-.74.14-.33.27-.6.56-1-.57.29-1.19.53-1.66.98l-.28.06-.17-.18c-.54-.26-.4-.31.14-.47-.07-.46.05-.97.35-1.52.2-.36.31-.8.35-1.32l-.17-.12c.33-.39.55-.79.66-1.21.32-.38.58-.91.95-1.28,1.13.56,2.27,1.37,3.34.84Z"/><path class="bb" d="M24.47,107.65c.15.53-.05,1.1-.59,1.72-.18.61-.5.98-.94,1.09.07.59-.08,1.26-.43,2-.59,1.01-.68,2.19-1.26,3.31-.35-2.12.54-3.95,1.25-5.74.2-.5.57-1.11.89-1.55.52-.72,1-1.47,1.57-2.15.6-.39-.49,1.33-.49,1.32Z"/><path class="bm" d="M23.77,110.48c-.06.14-.04.34-.14.47-.38.49-.81.97-1.12,1.51-.11-.69-.15-1.53.43-2,.37-.38.66-.65.83.02Z"/><path class="he" d="M24.32,70.04c-.22.77-.03,1.7-.45,2.53-.12.24-.66.22-.87.29.67-.2-4.7.33-4.37.25-1.46.37-2.63.09-3.94-.03l-3.89-.35c-.77-.07-1.48.77-2.21.66-.15-.54-.08-1.14-.43-1.6-.03-.61.3-.57.46,0h.14c.26.24.4.42.43.54.82-.34,1.62-.6,2.43-.78l.24.27c.51.06.93.21,1.28.45,2.52.27,5.02.25,7.49-.07.26.24.62.21,1.08-.1.8.05,1.43-.13,1.9-.52.2-.68.46-1.46.51-2.19.28.24.12.5.21.67Z"/><path class="fu" d="M75.17,57.42l.24.28c.42.09.4.27-.03.34l.28.41c-.97,1.39-3.16,3.47-4.86,2.21-.67.81-1.26,1.04-1.76.69.43-.87,1.36-1.79,2.13-2.41l1.77-2.17c.53-.84,1.77-.03,2.24.65Z"/><path class="dt" d="M72.04,56.99l-1,1.53c-1,2.11-3.37,3.77-5.47,4.76-.06.19-.13.19-.22,0l1.31-1.39c.08-.43.4-.8.98-1.11.54-.74,1.17-1.26,1.87-1.56-.23-.17-.11-.31.36-.43l.28-.3-.14-.22.82-.61c-.19-.42.04-.54.39-.25.08-.46.63-1.13.82-.43Z"/><path class="gj" d="M71.16,58.94c-.66.82-1.34,1.69-2.13,2.41.12.62-.74,1.24-1.29.91-.58.48-1.36.77-1.96,1.22-.18.11-.24.04-.21-.19,2.02-1.34,4.16-2.75,5.47-4.76.07.13.1.27.12.41Z"/><path class="bn" d="M75.17,57.42c-.52-.62-1.42-.59-2.24-.65.17-.46.44-.92.72-1.32.01,1.14,1.11.69,1.52,1.97Z"/><path class="gt" d="M24.48,56.52l.02.91.14.48c-1.08.3-1.99.87-2.75,1.69-.63.38-1.35.46-1.31-.4.07-.31.17-.54.37-.61.32-.11.79-.04.98-.16.25-1.81,2.48-.4,2.31-2.14.07.08.18.13.23.22Z"/><path class="dk" d="M7.1,67.63c.48.46-.32,1.09-.04,1.55.42.7.7,1.33.58,2.27-.18.1-.49.09-.75.19-.46-.29-.09-.62.09-1.06.3-.73-.5-1.2-1.21-1.48.13-.65.68-1.07,1.1-1.46l.24-.02Z"/><path class="dz" d="M76.88,89.81c-.55-.2-1.12-.27-1.71-.19l-.24-.46c-.52-.37-.77-1.01-1.04-1.63.27-.08.39.06.62-.1-.26-.37-.33-.89-.6-1.09-.16-.55-.33-1.14-.5-1.74-.15-.08-.24-.2-.32-.36-.07-.15.21-.33.19-.49-.17-1.35-2.16-1.87-1.28-2.85l-1.2-1.52c.59-.02.72.51,1.18.56l-1.21-1.86c.56.2.8.8,1.41.49-.37-.63-.86-.93-1.07-1.5.32-.15.59.03.95.02l-.98-1.19c-.38-.47.19-1.09.25-.53l.09-.39c-.09-.34-.32-.73-.32-1.16.26.05.44.16.72.06-.14-.55-.23-1.07-.55-1.46-.19-.22-.13-.43.18-.63,0-.29,0-.6.01-.92-.13-.18-.17-.39-.46-.54.33-.17.46.11.64.14l.23.03c.18-.56.26-1.16.23-1.79h.23c0-.37-.12-.82.22-1.07l.04,3.27c.03,2.47.78,4.8,1.46,7.18l1.78,6.3c.52,1.83,1.12,3.62,1.06,5.42Z"/><path class="bi" d="M76.88,89.81c.65,2.15.57,4.42-.05,6.65-.29,1.05-.28,2.06-.88,3.05-.96,1.61-1.91,3.21-3.43,4.23-.56.01-.56-.43-.02-1.32-.23-.67.09-1.29.09-1.97.09-.28.26-.48.5-.59.15-.91.32-1.81.48-2.7.46,0,.75-.16.86-.47-.41-.83-.35-1.43.17-1.82-.12-.49.05-1.02.5-1.59-.18-.39-.37-.78-.53-1.37.25,0,.44.2.79.29-.19-.73-.63-1.12-1.12-1.78.39-.16.64.18,1.05.2-.05-.56-.39-.97-.37-1.46.42.2.78,0,1.29-.33.24.38.57.68.66.98Z"/><path class="hi" d="M70.55,44.33c.42.26.74.75.98,1.48-.11.63-.07,1.25.13,1.85-.48.09-1,.16-1.57.22-.67.32-1.3.58-1.91.79-2.25,1.43-3.53,5.15-2.6,7.7.59,1.61,1.59,2.32,3.04,2.81.44.87-.74,1.15-1.58,1.06-2.7-.27-4.81-3.19-5.19-5.72-.17-1.09.63-5.63,1.36-6.26l.62-.19,1.99-1.38c.53-.63,1.02-1.26,1.46-1.87,1.2-.2,1.93-1.47,3.27-.48Z"/><path class="gf" d="M63.83,48.06c-.38.39-.59.87-.69,1.5-.18,1.22-.87,2.29-.93,3.46-.16,3.15,1.68,5.98,4.68,6.75.74.19,1.45,0,1.73-.59.14-.32.75-.32.88.05-.84,1.02-1.57,2.24-2.85,2.67-2.11.5-4.6-1.06-5.81-2.99-.77-1.22-1.27-3.55-1.35-4.97-.04-.75.85-5.81,1.71-5.88.02-.11.04-.21.1-.29.08-.1,2.28.17,2.53.29Z"/><path class="an" d="M69.08,28.87c1.36-.16,2.81,6.59,2.98,7.7.1.63.11,1.34.16,1.97.23,3.26.72,6.36,1.74,9.49.07.22.02.72-.05.89-.05.13-.34.09-.49.17-.09.05-.22-.06-.32-.03-.35-.42-.76-.8-1.22-1.12v-.3c-.54-.31-.67-.93-.4-1.86-.5-.79-.62-1.61-.65-2.51.03-.58-.27-1.1-.63-1.58.89.14.21-1.9.46-2.49.27.19.49.52.61.18-1.36-1.35-.97-1.66-1.83-3.5.53.19.67.72,1.08.79l-1.46-2.81c.37-.21.61.21.99.44.54-.46-1.65-2.32-1.67-3.21.65.31.76,1.11,1.65,1.01l-1.65-2.13c.05-.57.4.36.69.21l-.99-1.68c.57.15.66.77,1.01.37Z"/><path class="bo" d="M24.5,57.43c.6.52.99,1.23,1.57,1.86.43.48,3.36,3.36,3.61,3.56-.02.27-.08.68-.36.78-.25.1-.54-.15-.81-.25-.78-.3-1.72.16-2.43-.19-2.12-1.06-.83.73-4.22-1.42-.58-.37-1.01-.75-1.76-.85.03-.55.33-.8.2-1.17-.06-.18.24-.4.27-.55.23.08.64.38.9.18.43-.34.69-.95,1.3-1.08.47-.1.78-.36.91-.84.18-.03.32.28.47.28s.23-.25.34-.31Z"/><path class="ad" d="M79.06,58.91c.7.11.83.33.39.68l-3.01,1.25c-.41.77-1.03,1.24-1.82,1.5-1.58.53-6.16,1.9-6.88-.09.41-.34.83-.68,1.29-.91.76-.16,1.16-.94,1.98-1.34.48,1.85,3.84-.69,4.36-1.98.6-.12,1.55-.08,1.95.45.22,0,.47.15.74.32l-.37-1.1c.66.34,1.1.72,1.37,1.2Z"/><path class="ew" d="M71.88,47.63c-.04.2-.12.2-.22.02-.21-.47-.78-.3-1.32-.32.48-.31,1.01-.73.78-1.39-.2-.56-.59-1.05-.57-1.61.01-.37.23-.71.29-1.07.8.89.09,1.01,1.15,2.49-.27.63-.36,1.22-.11,1.88Z"/><path class="ba" d="M23.42,91.99c-.2.38-.57.67-.98.82,0-.66.22-1.19.68-1.46-.03.26.09.49.3.64Z"/><path class="gb" d="M13.22,8.03l.41-.11c.79,1.17,1.85,2.09,3.18,2.76.26-.33.41-.24.28.17l.49-.13,2.04,2.03c.56.02,1.1.29,1.62.8.17-.12.24-.08.2.12.43-.1.74-.05.63.45l.53.18c1.51,1.6,3.06,3.09,4.66,4.47.3.76.77,1.25,1.42,1.46l1.24,1.3c.34-.28.36.16.26.48.27.07.54.26.81.57l.23-.11c.74.85,1.59,1.43,2.55,1.75.31-.27.55-.3.72-.1-.1-.6-.01-.64.42-.2,1.06-.48,2.15-.94,3.26-1.35-.31-.71.94-1.24,1.51-.8,1.11,0,2.22-.14,3.32-.41,2.1.03,4.18-.06,6.27-.29.02-1,2-.81,1.72.18l.67-.36c.36-.2.78-.1,1.27.3l.83.2c.3-.84.99-.78,1.47-.12.37-.97,1.98-.46,1.63.44.52.37,1.1.45,1.75.27.48-.36.67-.14.43.4.41-.04.94,0,1.1.42.43-.95,2.28-.15,1.92.88.31-.42.78-.32,1.42.31.89-.29,1.66-.83,2.32-1.63l.23.06c1.04-1.36,2.12-2.69,3.24-4.01.41-.22.66-.14.81.32.43.25.27.67-.49,1.27-.24.86-.73,1.42-1.46,1.69-.17.12-.31.27-.4.46-.12.23-.4,1.7-.41,1.9.7.75,1.31,1.54,1.83,2.37l-.34.37-.17.35c.38.34.37.51-.03.51.48.5.63.9.45,1.22.11,1.17.36,1.97,1.24,2.95.05.41-.19.63-.59.71.92.93,1.02,1.67.29,2.22.49.68.73,1.34.74,1.98-.42.22-.42.65,0,1.3.88.9.98,1.53.31,1.9.15.69.09,1.33-.18,1.9.42.66.41,1.14-.04,1.44.19.45.28.97-.29,1.07-.37.12-.8.16-1.31.11-.84.59-1.5.72-1.96.37l-.13-.23c.57-1.89-.26-4.04-1.95-5.06.44-.48.56-.73.34-.74-.46.32-.5.22-.44-.3-2.03,1.24-3.99,2.55-5.89,3.92.3.5-.28,1.15-.77.71-.32.25-.48.45-.49.6l.31.04c.3,1.92,1.25,3.1,2.97,3.96l-.03.33.07.44c-2.49,4.68-1.53,12.88,5.02,13.03l.37.37c.09.13.15.23.13.25-.38.41-.96.83-1.44,1.14-.04.18.11.25.43.19.39-.52,1.33-1.13,1.96-1.22l.29-.05c2.12,1.42,6.76.26,8.24-1.76l2.72-1.15.44.29c.74.06,1.4.42,1.99,1.08.44-.18.61.08.25.41.21.31.46.31.75,0l1.39.49c.61-.27,1.2.43.86,1.04.3-.3.64-.15,1.02.46l.5.24c.58-.01,1.18.19,1.8.6.66.11,1.28.26,1.88.43.36-.13.81.62.95.97.2.53.35,1.78-.07,2.19.25.64-.3,1.46-.72,1.97.39.66.27.76-.41.96-.35.28-.62.57-.82.88-.52-.06-1.07-.32-1.49-.6l-1.24-.36c-.97.47-2.04.39-3.21-.25-.18.45-.57.57-.97.33.45,1.02-.09.95-.96.75-.79-.18-1.15-.44-1.62-1.07-.11-.14-.14-.08-.1.12l.16.48c-.7-.1-1.39-.19-2.07-.28-.81.5-1.51.55-2.28-.05-.66.61-.98.15-1.17-.55-.21-.47-.32-.89-.29-1.57-.36.16-.16.46-.2.68-.2-.58-.37-1.14-.17-1.96-.38.04-.38.29-.48.44-.05.07-.15.16-.22.22-.07.39-.14.75-.22,1.09-.23.51-.38,1.13-.46,1.85l-.23-.1-.18.39c.15.48.09,1-.19,1.55.6.04.91.48.95,1.31-.3.4-.56.82-.8,1.25.07.45-.21.55-.58.31.17.13.25.34.23.61.78-.32,1.65,1.09.9,1.69.55.54.84,1.13-.01,1.52.3.4.5.7.05,1.08.32.32.4.76.24,1.31,1.25,1,1.63,2.03,1.16,3.09.35.61.51,1.19.5,1.74.71-.46,1.21,1.07.62,1.55.39.47.52.89.41,1.27.71.21,1.07,1.45.31,1.79.3.36.45.74.46,1.16-.26.33-.46.73-.58,1.18.25.43,0,.67-.75.71.07.18.13.43.1.61-.15.82-.38,1.76-.61,2.64-.02.06-.15.1-.31.13-.18.94-.34,1.9-.49,2.88l-.46.21c.22.5.32,1.53-.09,1.97l-.2.85c-.27.18-.57.43-.88.74l-.29.82c-.05.15.22.2.31.21-.67.48-1.59.34-2.23,1.05.9.05,1.53-.43,2.25-.58-.05.11-.09.23-.11.34.22.28-.89,2.01-1.04,2.1-.28.17-3.27.02-3.65-.25l-.14.12c.45.72.44,1.19-.02,1.42-.11.09-.21.16-.23.15-.47-.4-1.51-1.8-1.77-2.36-.02-.03.07-.11.17-.21.62-.11,1.28-.2,1.99-.27.02-.29-.24-.21-.43-.22l-.46-.28c-1.15-.04-1.52-.39-1.1-1.06-.08-.18-.23-.06-.46.37l-.37-.14c-.5.38-.63.22-.46-.38-.49-.18-.91-.15-1.26.07-1.27-.61-2.74-.95-4.4-1.02l-.34-.25c-.1-.4-.55-.56-1.36-.48-.15-.41-.22-.88-.22-1.43-.45.22-1.51-.27-1.56-.78-1.08.91-3.41,1.08-4.84,1.04l-.34-.41c-.78-.22-1.51-.23-2.19-.02-.81.63-2.93,1.82-3.66.67-1.04.87-1.69.95-1.96.26-.57.79-1.16.99-1.75.61-.34.79-1.02,1.14-2.04,1.04-.73.44-1.37.6-1.9.48.04.64-.87.76-1.29.42-.22.11-.46-.06-.72-.51-.69.34-1.09.86-1.21,1.56-.14-.02-.3.02-.44,0,.08.3.5.48,1.26.52.45.27-.44,1.33-.86,1.22-.39-.02-.78-.16-1.15-.4-.66.38-1.11.06-1.37-.97l-.49-.56c-1.18,0-2.25-.74-3.24-1.32.12.03.11-.05.11-.13,0-.13-.11-.2-.14-.28-.38-.39-.58-.8-.58-1.23-.66-.02-.97-.49-.92-1.42-.78-.05-1.03-.73-.75-2.04-.91-.33-.59-2.05.03-2.47.28-.5.3-.85.06-1.05-.25.2-.38.11-.48-.19-.06-.19.1-1.39.17-1.63-.37-.51-.29-.94-.12-1.53-.08-.12-.08-.33.01-.62-.69.32-.67-.13-.3-.64-.59-.36-.43-.78.27-.7-.36-.39-.6-.83-.67-1.51-.41-.44-.18-1.05.69-1.83-.32-.67-.1-1.4.65-2.18-.37-.65-.26-1.45.35-2.41l.65-1.32c-.06-.89.18-1.74.72-2.54-.43-.13-.6-.39-.53-.8l.82-1.89c-.44-.7.04-2.37.8-2.43-.17-.5-.41-.49-.65-.03.49.83-.83,1.15-.95-.11.19-.55.3-1.1.33-1.66l-.51-.16c-.1-.73-.13-1.46-.08-2.2h-.28c-.14-.51.15-1.05-.19-1.56-.08.81-.05,1.39-.22,2-.17,0-.19-.33-.18-.51,0-.11.02,2.21-.53,2.03-.14.43-1.05.64-1.34.26-1,.73-1.63.73-1.89,0-.77.57-2.44,1.16-2.95.24-.91.51-1.55.5-1.94-.05-.82.43-1.75.35-2.65.19.09-.48,0-.77-.28-.85-1.13.18-2.18.5-3.33,1.01-.23-.07-.38-.26-.45-.55-.01.19-.06.18-.14,0-.37-.29-.31-.49-.04-.8-.36-.23-.47-.57-.33-.97-.46,0-.85-.28-1.18-.82-.88-.06-.27-1.11.04-1.55-.54-1.15,2.36-3.36,2.44-1.35.04.62.11.49.19-.41-.41-.45-.2-.67.63-.65-.3-.57.36-1,.82-.59,1.01.04,1.92-.36,2.73-1.22.44-.05.63-.2.55-.44-.85.31-1.4-.32-.45-.35l1.47-.14c.12-.25.24-.5.35-.74.66-.22,1.28-.5,1.87-.83-.43-.58.21-.75.79-.75-1.19-1.51,1.57-1.76,1.82-.39.48.08.53.34.34.74.05.25,3.8,2.49,4.65,1.93.99.49,1.8.51,2.89.43.64.4,1.13.4,1.49-.01l.22-.11c.6.41,1.11.66,1.53.76.49.21.85.28,1.09.22l-2.71-2.04c-.39-.27-.51-.51-.38-.74l.27-.46c4.29,2.14,6.98-2,7.14-6.01l-.63-6.18c-.11-.41.28-.54.66-.45l.02-.27c1.2-.79,1.99-1.99,2.37-3.6l.19-.08c-.49-.31-.41-.49.17-.45-.11-.25-.26-.39-.48-.55-1.87-1.26-3.78-2.56-5.78-3.58l-.23.16c-.3-.31-.64-.47-1-.49l.35.59c-.47.45-.88.96-1.23,1.52.75.2.24,1.05-.43.86-.39.49-.48,1.31-.3,2.47l-.26.13-.51-.05c-.6-.88-1.4-1.64-2.4-2.27l.15-.48c-.2-.03-.21-.11-.04-.23-.44-1.74.26-4.3,1.33-5.89-.26-.86-.18-1.25.19-2.09-.26-.13-.57.08-.93.61-.9-.15-.89-.82.02-2-.72-.3-.64-.99.23-2.07.08-.71.12-1.37.12-1.98l-.54-.27c-.43.31-.99.14-1.67-.49-.72.09-1.25-.05-1.58-.43-.63-.73-.76-1.29-.39-1.69-.86-.24-1.72-.72-2.06-1.75-.16.07-.33,0-.49-.22-.29.3-.41.2-.25-.2l-.53-.05c-.54-.87-1.34-1.63-2.39-2.27-1.1-.26-1.58-.76-2.12-1.75-.23.46-.42-.1-.21-.11.13,0,.31,1.92-.77,1.16l-1.34-2.15c-.75.6-1.86-.95-.94-1.38-.13-1.03.07-1.46.61-1.28,1.48,2.12,3.74,3.52,6.15,4.35.64.8,1.44,1.3,2.39,1.51.63,1.07,1.05,1.16,1.26.27-.27-1.43.05-2.24.95-2.42-.52-.76-1.3-1.23-2.35-1.4-.19-1.44-.87-1.95-2.24-2.26l-2.81-3.27c-2.06-.51-3.79-1.43-5.17-2.77l-.37-.94c-.66-.3-1.08-.68-1.26-1.14l.18-.44c.3-.46.79-.44,1.49.04.96.31,1.37.73,1.23,1.26Z"/><path class="fp" d="M72.34,105.26c-.34-.12-.59.2-.86.25-.36.47-2.14,1.57-2.48.69-.32-.83,1.82-1.59,2.45-1.17.13-.09.32-.19.47-.24.15.14.31.28.42.46Z"/><path class="t" d="M34.25,105.05c-.31.4-.63.63-1.23.68.38.3.72.14,1.03.22-.55.05-1.12.25-1.72.15-.2-.14-.37-.3-.29-.45.45-.91-.59-.03,1.45-1.63.16-.07.44.3.58.22.19-.12.29-.46.65-.2-.28.28-.76.66-.46,1.01Z"/><path class="do" d="M66.66,106.56c-.02.38-.91.16-1.99.27-.19.02-.4.02-.59-.04-.1-.12.03-.21.19-.22h2.38Z"/><path class="fq" d="M33.79,106.57l-.65.05c.15-.01-2.59.03-1.26-.52-.08.56,2.28-.06,1.91.47Z"/><path class="bv" d="M10.36,65.21c-.24.17-.47.39-.63.65.08.18-.02.32-.19.41-.13.02-.37-.08-.41-.21-.03-.08.03-.34-.07-.32-.96.21-1.87,1.03-1.96,1.88-.05.19-.13.2-.24.02-.02-.19-.08-.37-.18-.53.2-.17.1-.59.35-.8l1.36-1.13c.54-.45,1.33-.05,1.97.02Z"/><path class="et" d="M90.56,64.37c1.03.62,1.25,1.14.68,1.55-.18.64.28,1.27.93,1.74-.37.62-1.03.72-1.48,1.15l.33,1.62c-.36.02-.96-.02-1.24.14-.23.12-.27.49-.47.79-.01-.04-.03-.23-.03-.32,0-.06-.1-.16-.2-.11-.08.05-.14.39-.24.39.04-.62.46-.99,1.15-1.21l-.66-.66c.81-.41,1.29-1.13,1.05-2.01.73-1.06.33-2.28-.47-3.09.13-.08.42.05.47-.18.18-.06.21.06.2.21Z"/><path class="gk" d="M8.61,71.78h-.46c-.26.01-.54-.06-.8,0-.23.06-.33-.05-.47-.13.16-.34.29-.69.4-1.07l-.05-.55c-.29-.39-.35-.67-.18-.85.1.04.26-.26.34-.22.09.04.02.53.17.55.32.05,1.16-.06,1.18.34-.08.28-.26.68-.05.72l.45.08c-.03.48-.45.78-.53,1.13Z"/><path class="g" d="M87.34,70.71c-1.47.3-2.95.41-4.39.81-.68.19-1.44-.28-2.27.1-.3.14-4.38-.35-3.59-.35-.79,0-2.71,0-3.11-.42-.26-.28.04-.73-.1-1.02.26.13.47.32.69.55l.23-.74c.48.44.99.68,1.57.92-.08-.47-.26-.68-.19-1.08.28.45.73.69,1.15.96.59.04,1.2.13,1.82.27l.1-.47c-.1-.15-.26-.17-.43-.35.57-.24.76.43,1.14.51.68.15,1.19.36,1.87.77l-1.03-1.76,1.74.85c-.18-.43-.65-.47-.69-1.04.46.51,1.32.37,1.87.69.86.5,1.33.53,2.2.06.46-.22,1.07.52,1.41.75Z"/><path class="hd" d="M72.5,102.42c.14.4-.1.91.02,1.32-.34.23-.71.52-1.1.26.18-.51.07-1.09.03-1.86.6,0,.4.56.58.92l.47-.65Z"/><path class="hj" d="M44.96,70.64c-1.77-1.2-3.22-2.64-4.95-4.12,2.2.02,4.33,1.06,6.66.64,1.23.39,2.44.06,3.64.09,2.64.07,5.03-.38,7.86-1.18-1.15,1.66-5.25,5.5-7.29,5.25-.46-.08-.85-.15-1.41-.02-1.38.31-3.24.19-4.5-.66Z"/><path class="br" d="M54.23,100.96c.08.4.38.67.89.8.14-.18.37-.19.67-.02.21.03.78-.06.81.21-.06.38-.56.52-.46.94.76-.17,1.31-.21,1.81.07-.18.22-.34.29-.36.49,1.38.27,2.74.25,4.08.69.16.05.25.63.49.4.13-.13.09-.34.18-.7.45.14.76.61,1.02,1.01-.18.09-.35.43-.6.49-1.1-.16-2.19-.24-3.29-.48l-5.41-1.18c-2.66-.58-7.09-.97-9.6-.18-2.05.65-4.15.71-6.24,1.25-.61.16-2.72.81-2.69-.12.57-.4,1.4-.88,2.19-.97.45-.05.86.26,1.13-.36.21-.47.65-.88,1.09-.99l-.06.44c-.13,1.04,1.15-1.08,2.02-1.16.21.44-.27.65-.4,1.17l2.74-1.66c-.21.51-.84.88-.5,1.29,1.09-.02,2.16-.95,3.1-.81l1.41-.36c.02.36.28.48.78.38l3.88-.32c.49-.04.88-.34,1.31-.31Z"/><path class="p" d="M23.6,71.56c.72,1.02-3.49,1.05-4.28,1.16-2.03.3-3.94.15-5.94-.21-.64-.11-1.43.08-1.54-.71-.33-.37-.11-.52.68-.47.48-.13.84-.52,1.43-.58l-.93,1.27c1.47.15,2.46-.51,3.58-1.17-.09.56-.67.63-.84,1.23.86-.05,1.51-.54,2.3-.91l-.32.96c1.93.28,1.71-.84,3.88-1.21-.27.45-.79.66-.81,1.26.85-.32,1.13-1.08,1.87-1.51.02.4-.23.65-.12,1.04.39-.04.69-.16,1.02-.16Z"/><path class="di" d="M75.11,93.29c.08.18.35.23.25.53-.06.17-.38.35-.45.5-.04.34.41.66.16,1.09l-.6-.17.5,1.72c-.16.17-.39.14-.42.25-.05.13.09.53,0,.62-.33.11-.54-.36-.84-.54-.05.78.32,1.36.51,2.1-.36-.21-.18-.65-.53-1.06-.77.12.35,2.57-.4,3.93-.41-.68-.3-1.28-.34-1.99-.18.03-.22.2-.35.2,0-.48.27-.74.39-1.28l.66-3.01c.16-.74.54-1.32.31-2.07-.08-.27.2-.54.35-.63.22-.14.41.01.68.22l.12-.38Z"/><path class="gm" d="M11.18,64.63c.32-.23.69-.24,1.08-.5l1.42-.94c.24-.16.68.1.78-.22.31-.04.67-.1.91.3-1.74-.26-2.38,2.69-4.19,1.36Z"/><path class="gk" d="M12.53,71.33c-.26.07-.45.37-.68.47-1.64.11-3.09,1.69-3.1-.02.11.06.28.3.43.32l2.66-1.24c.12.27.04.47.17.48.2.02.44.01.52-.01Z"/><path class="ba" d="M23.78,97.01c-.05-.27-.08-.49.02-.89-.3.09-.28.33-.52.65-.38-.59-.09-1.19.11-2.05l-.99.51c.11-.97.63-1.77,1-2.62-.06.45.26.83.49,1.26.29.55-.46,1.06-.35,1.56.07.31.86.35.7.8-.11.31-.07.71-.46.77Z"/><path class="gm" d="M17.71,60.9c-.11.16.08.55-.15.61-.75.18-1.48-.07-1.49.37,0-.1,1.05.95-2.05.74.41-.39.99-.22,1.54-.28-.24-.3-.53-.21-.59-.52.7-.08,1.18-.49,2.06-.53-.06-.17-.3-.18-.43-.41.38-.41.75-.07,1.11.02Z"/><path class="gg" d="M55.79,101.75c-1.22,1.18-.5-.54-2.65.6l1.08-1.38c.59.04,1.19.31,1.56.78Z"/><path class="cb" d="M81.44,60.67c-.74-.29-1.57-.35-1.99-1.08l-.39-.68c.27.24.58.08.94-.18.36.74,1.19,1.2,1.44,1.94Z"/><path class="cm" d="M83.83,61.56c-.16.14-.33.37-.48.29-1.25-.64-1.6-.15-1.66-.78.11,0,.35.19.48.09.15-.12-.1-.47-.01-.8,1.91,1.42.76-.21,1.68,1.2Z"/><path class="bp" d="M49.05,101.59c-.85.07-1.33.11-2.19-.02.47-.55,1.21-.73,1.89-1.14.02.5-.3.63-.39,1.08.29.11.5.05.7.08Z"/><path class="d" d="M71.4,74.98c.04.06.22.09.25.18.08.31-.46.36-.59.74-.86-.26-.81-.88-1.07-2,.15.11,1.44,1.55,1.42,1.08Z"/><path class="em" d="M23.39,90.66c.02-.22-.28-.1-.55-.03-.11-.58-.25-1-.12-1.48-.03.25.29.21.43.15.08-.04.18-.13.61-.29-.19.37-.6.66-.62,1.23.18.18.38-.11.53-.12s.06.3,0,.35c-.07.05-.16.07-.28.18Z"/><path class="cq" d="M79.25,70.23c.12.18.34.33.38.72l-1.2-.16c-.56-.08-.77-.14-1.1-.35.39-.86,1.93.86,1.91-.2Z"/><path class="cc" d="M86.22,63.31c-.15.09-.15.3-.55.46.03-.76-.5-.9-.97-1.16.17-.16.25-.37.45-.62.43.52.7.94,1.07,1.32Z"/><path class="av" d="M73.9,86.34c-.61-.39-.56-1.05-.5-1.74l1.09,1.2c-.26.07-.35.1-.46.16-.14.06-.21.22-.13.39Z"/><path class="br" d="M64.67,105c-.08.16-.17.39-.33.47-.28.13-.38-.08-.5-.24.12,0,.47.07.48-.09-.17-.59-.66-.79-.66-1.39.56.22.85.77,1,1.25Z"/><path class="dc" d="M26.86,73.75c-.05-.07-.17-.35-.29-.31s-.27.23-.36.28c.09-.56.57-.92.99-1.53.15.61-.09,1.09-.34,1.56Z"/><path class="ay" d="M71.25,72.42c-.14-.16-.6-.41-.29-.71.27-.26.54-.49.48-.85.18.25.31.49.41.86s-.3.45-.6.69Z"/><path class="hb" d="M9.54,66.28c.05-.15.11-.28.19-.41.08-.04.16-.06.17.02-.44,1,.13,1.11.68,1.68-.5.16-.76-.19-1.05-.49-.18-.19-.1-.5,0-.79Z"/><path class="ay" d="M72.32,68.72c0-.52-.27,3.5-.69,1.75.72-.03-.29-2.65.69-1.75Z"/><rect class="fd" x="87.05" y="65.7" width="1.44" height=".34" transform="translate(-21.11 79.6) rotate(-44.07)"/><path class="eh" d="M58.44,43.11c-.02.12.07.24.07.35-.2.04-.39.13-.56.25-.17-.02-.38.1-.66-.1.35-.27.77-.34,1.15-.51Z"/><path class="m" d="M28.44,28.1c.25.35.11.46-.24.19-.15.3-.34.69-.69.64-.05-.08-.12-.15-.2-.21v-.19c-.21-.52,0-.87.58-.71.14-.2.46-.3.45-.56-.07-1.25-1.08-.55-.86-2.48-.34.08-.12.76-.44.79-1.29.1-3.7-1.93-2.86-2.8.35-.36.9-.51,1.19-1.01-.46-.59-.46-1.41.14-1.71.07.62.04,1.01.28,1.32.13.17.68.07.81.39.17.42.13,1.31.73,1.32,2.7.01,1.51.91,2.64,1.02.16.02.46-.37.62-.34.88.18,1.06,1.13.84,1.9-.15.53.3,1,.05,1.55-1.82.78.25.23-2.19,1.76l.37-1.37-.75.67c-.09-.24-.1-.39-.2-.51-.06-.06-.17.03-.2.08-.05.09-.03.21-.08.26Z"/><path class="cz" d="M29.92,21.54c-.73-.49-1.44-1-2.38-1.37-.52-1.5-1.87-2.3-2.99-3.27-.97-.84-1.7-1.88-2.48-2.77.02-.45.28-.42.61-.18l.99,1.2c.06.08,2.78,1.72,3.34,3.19.03.09.32.33.4.27.08-.07.05-.36.26-.57.72,1.19,1.65,2.27,2.27,3.51Z"/><path class="cr" d="M27.46,41.52c-.13-.36-.47.1-.76.19l.38-1.27c-1.52.16.47-1.06.16-1.7l-1.11.46c.49-.91,2.37-3.65,2.3-4.2-.53.33-.74.81-1.35.82l1.91-2.28c.23.36-.11,1.03.06,1.37.45.93-.02,1.08-.39,1.72-.54.94-.64,2.27-.95,3.37-.15.56.21,1.18-.25,1.53Z"/><path class="hg" d="M55.96,55.24c.14.69-.91.88-1.55.75-1.78-.67-3.57-1.28-5.37-1.84-2,.55-3.96,1.24-5.87,2.08-.54.06-1.13-.3-1.27-.83-.12-.23-.29-.28-.31-.52l1.58.78c1.81-.76,3.52-1.75,5.5-2.12.99-.19,2.05.52,2.99.8.56.17,1.32.1,1.71.46.85.78,1.61.67,2.59.43Z"/><path class="gh" d="M55.96,55.24c.19-.05.42-.19.53-.14.2.08-.44.78-.19.42-1.43,2.09-4.88-1.07-7.22-1.03-2.08.04-3.86,1.41-5.8,1.93-.5.13-1.72-.44-1.38-.99.33.17.75.83,1.22.65,2-.76,3.84-1.61,5.91-2.23l4.86,1.82c.83.31,1.56.27,2.07-.41Z"/><path class="dn" d="M49.27,21.08c-.28.16-.5.15-.9.12-.13,0-.26.37-.36.47-.18.17-.58-.38-.72-.28-.68.49-1.37.55-2.12.38-.49-.11-1.17.3-1.8.03-.84-.37-1.65.09-2.39.27-.36.09-.9-.54-1.31-.28.49-.3,1.1-.4,1.78-.25.63.14,1.1-.41,1.66-.47,2.09-.23,4.16-.27,6.15.02Z"/><path class="dv" d="M21.45,23.06c-.2.02-.41.09-.64.13-.46.08-.23-.69-.88-1.08-.13-.08-.36.21-.68.28-1.31-2.28-1.34.26-2.85-3.4.26.19.44.51.73.76.48.39,1.26.29,1.7.69.57.53,1.15.98,1.78,1.48.38.3.37.98.83,1.14Z"/><path class="aa" d="M21.24,13.55c-1.79.09-3.64-2.39-4.15-2.7.17-.21.16-.53.32-.77,1.06.71,1.61,1.72,2.42,2.55l.14-.9c.64.48.83,1.21,1.27,1.81Z"/><path class="ee" d="M50.43,49.65c.18.6-.82,1.2-1.32,1.29-.61.11-1.94-.58-1.51-1.3.39-.64,2.16-.46,2.83.01Z"/><path class="dv" d="M24.26,25.23c-.9-.69-.52,1.71-1.14.5-.46-.9-1.22-1.54-1.41-2.47.23-.11.43-.31.79-.3.5,2.01,1.45,1.09,1.77,2.26Z"/><path class="go" d="M16.81,10.68c-.64.19-2.29-1.09-2.84-1.75l-.75-.9c.17-.14.32-.4.46-.53.68.31.69,1.26,1.24,1.62.73.48,1.61.71,1.9,1.56Z"/><path class="gn" d="M28.4,60c.13.49.65.73,1.04.93.7,1.28,2.4,1.57,3.08,2.78-2.04-.99-3.69-2.68-5.23-4.34-.05-.68.66.48,1.11.63Z"/><path class="gy" d="M38.18,22.57c-1.69,1.68-1.2.76-3.26,1.35.66-1.28,1.91-1.06,3.26-1.35Z"/><path class="eq" d="M34.49,24.12l-.6.39c-.28.18-.56-.37-.83-.39-.77-.08-.94-.53-1.36-.86-.53-.43-1.36-.49-1.53-1.24.43-.05-.11-.66.48-.81.17.51.01.97.5,1.21.24-.55-.2-.92-.01-1.45.85.83.16,2.45,2.65,2.96.17.04.38-.57.52-.38s.11.46.18.59Z"/><path class="dd" d="M31.27,41.09c-.1-.89.83-.82.87-2.11l.99.77c-.69.34-.88.29-1.11.64-.26.28-.46.56-.75.7Z"/><path class="s" d="M65.79,63.48c-.63.46-1.19,1.16-2.2,1.11.66-.9.72-.18,1.77-1.3h.22c.07.07.14.13.21.19Z"/><path class="ak" d="M60.16,22.81c-.44.03-1.01.13-1.1-.42.17-.12.17-.45.33-.55.44.17.81.56.78.96Z"/><path class="ak" d="M58.62,21.99c-.25-.01-.44.29-.7.38-.56.19-.76-.41-1.05-.65,1.14.37,1.37-.28,1.75.27Z"/><path class="aa" d="M22.67,13.94c-.15.17-.39.17-.61.18-.17-.15-.54-.17-.63-.45.1.04.22.01.27-.1.02-.05.02-.14.05-.3.42.04.71.41.92.67Z"/><path class="cl" d="M51.66,20.9c-.11.29,0,.55.45.74-.53.21-.85-.06-1.11-.38.23-.07.41-.85.67-.36Z"/><path class="hc" d="M28.35,112.3c-.75.66-1.29,1.74-2.46,2-1.38.31,1.46-2.88.75-2.92l.23-.43c.07.11.31.05.3.14-.01.14-.11.37-.18.58.4.31.91.49,1.35.63Z"/><path class="bn" d="M77.32,58.49c-.7,0-1.49.14-1.95-.45.04-.1,0-.24.03-.34.3.08.62-.3.91-.35.5.08.86.7,1,1.15Z"/><path class="cy" d="M23.77,110.48c-.29-.18-.59.35-.83-.02.27-1.05.95-1.91,1.53-2.82-.05.23,0,.46.25.41.15-.03.32-.08.58-.04-.05.53-.7.74-.86,1.28-.14.49-.25.95-.67,1.19Z"/><path class="ha" d="M68.19,48.67c-2.05,2.07-3.73,6.02-1.79,8.81.89,1.28,2.41,1.69,3.76,1.02.1.49-.46.5-.64.73-.29-.09-.59-.07-.88-.05-.85.07-1.52-.38-2.11-.97-1.91-1.9-1.51-4.17-1.08-6.56.14-.78.42-.88.97-1.49l1.32-1.48c.14-.16.32-.14.46-.01Z"/><path class="be" d="M65.76,45.68c-.49-.49-.98-.22-1.48.8-.17.26-.88.49-.65.24.15-.16.51-.06.44.24-.69.29-1.4.2-2.19.07,1.74-2.47,4.65-3.96,4.43-2.47-.07.49-.37.79-.55,1.12Z"/></svg>